<svg width="109" height="40" viewBox="0 0 109 40" fill="none" xmlns="http://www.w3.org/2000/svg">
<path d="M9.45256 31.9858C8.31256 31.9858 7.17256 31.9458 6.03256 31.8658C4.91256 31.8058 3.74256 31.6458 2.52256 31.3858V11.2258C3.48256 11.0458 4.53256 10.9158 5.67256 10.8358C6.81256 10.7358 7.87256 10.6858 8.85256 10.6858C10.1726 10.6858 11.3826 10.7858 12.4826 10.9858C13.6026 11.1658 14.5626 11.4858 15.3626 11.9458C16.1626 12.4058 16.7826 13.0158 17.2226 13.7758C17.6826 14.5158 17.9126 15.4358 17.9126 16.5358C17.9126 18.1958 17.1126 19.5058 15.5126 20.4658C16.8326 20.9658 17.7326 21.6458 18.2126 22.5058C18.6926 23.3658 18.9326 24.3358 18.9326 25.4158C18.9326 27.5958 18.1326 29.2358 16.5326 30.3358C14.9526 31.4358 12.5926 31.9858 9.45256 31.9858ZM7.08256 22.6558V28.0258C7.42256 28.0658 7.79256 28.0958 8.19256 28.1158C8.59256 28.1358 9.03256 28.1458 9.51256 28.1458C10.9126 28.1458 12.0426 27.9458 12.9026 27.5458C13.7626 27.1458 14.1926 26.4058 14.1926 25.3258C14.1926 24.3658 13.8326 23.6858 13.1126 23.2858C12.3926 22.8658 11.3626 22.6558 10.0226 22.6558H7.08256ZM7.08256 19.0858H9.36256C10.8026 19.0858 11.8326 18.9058 12.4526 18.5458C13.0726 18.1658 13.3826 17.5658 13.3826 16.7458C13.3826 15.9058 13.0626 15.3158 12.4226 14.9758C11.7826 14.6358 10.8426 14.4658 9.60256 14.4658C9.20256 14.4658 8.77256 14.4758 8.31256 14.4958C7.85256 14.4958 7.44256 14.5158 7.08256 14.5558V19.0858ZM26.8488 31.7158H22.3788V15.9358H26.8488V31.7158ZM27.2688 11.3758C27.2688 12.1958 26.9988 12.8458 26.4588 13.3258C25.9388 13.7858 25.3188 14.0158 24.5988 14.0158C23.8788 14.0158 23.2488 13.7858 22.7088 13.3258C22.1888 12.8458 21.9288 12.1958 21.9288 11.3758C21.9288 10.5558 22.1888 9.91582 22.7088 9.45582C23.2488 8.97582 23.8788 8.73582 24.5988 8.73582C25.3188 8.73582 25.9388 8.97582 26.4588 9.45582C26.9988 9.91582 27.2688 10.5558 27.2688 11.3758ZM30.9007 12.0058L35.3707 11.2858V15.9358H40.7407V19.6558H35.3707V25.2058C35.3707 26.1458 35.5307 26.8958 35.8507 27.4558C36.1907 28.0158 36.8607 28.2958 37.8607 28.2958C38.3407 28.2958 38.8307 28.2558 39.3307 28.1758C39.8507 28.0758 40.3207 27.9458 40.7407 27.7858L41.3707 31.2658C40.8307 31.4858 40.2307 31.6758 39.5707 31.8358C38.9107 31.9958 38.1007 32.0758 37.1407 32.0758C35.9207 32.0758 34.9107 31.9158 34.1107 31.5958C33.3107 31.2558 32.6707 30.7958 32.1907 30.2158C31.7107 29.6158 31.3707 28.8958 31.1707 28.0558C30.9907 27.2158 30.9007 26.2858 30.9007 25.2658V12.0058Z" fill="white"/>
<path d="M82.2526 28.5958C82.6926 28.5958 83.1126 28.5858 83.5126 28.5658C83.9126 28.5458 84.2326 28.5158 84.4726 28.4758V25.0858C84.2926 25.0458 84.0226 25.0058 83.6626 24.9658C83.3026 24.9258 82.9726 24.9058 82.6726 24.9058C82.2526 24.9058 81.8526 24.9358 81.4726 24.9958C81.1126 25.0358 80.7926 25.1258 80.5126 25.2658C80.2326 25.4058 80.0126 25.5958 79.8526 25.8358C79.6926 26.0758 79.6126 26.3758 79.6126 26.7358C79.6126 27.4358 79.8426 27.9258 80.3026 28.2058C80.7826 28.4658 81.4326 28.5958 82.2526 28.5958ZM81.8926 15.5158C83.2126 15.5158 84.3126 15.6658 85.1926 15.9658C86.0726 16.2658 86.7726 16.6958 87.2926 17.2558C87.8326 17.8158 88.2126 18.4958 88.4326 19.2958C88.6526 20.0958 88.7626 20.9858 88.7626 21.9658V31.2658C88.1226 31.4058 87.2326 31.5658 86.0926 31.7458C84.9526 31.9458 83.5726 32.0458 81.9526 32.0458C80.9326 32.0458 80.0026 31.9558 79.1626 31.7758C78.3426 31.5958 77.6326 31.3058 77.0326 30.9058C76.4326 30.4858 75.9726 29.9458 75.6526 29.2858C75.3326 28.6258 75.1726 27.8158 75.1726 26.8558C75.1726 25.9358 75.3526 25.1558 75.7126 24.5158C76.0926 23.8758 76.5926 23.3658 77.2126 22.9858C77.8326 22.6058 78.5426 22.3358 79.3426 22.1758C80.1426 21.9958 80.9726 21.9058 81.8326 21.9058C82.4126 21.9058 82.9226 21.9358 83.3626 21.9958C83.8226 22.0358 84.1926 22.0958 84.4726 22.1758V21.7558C84.4726 20.9958 84.2426 20.3858 83.7826 19.9258C83.3226 19.4658 82.5226 19.2358 81.3826 19.2358C80.6226 19.2358 79.8726 19.2958 79.1326 19.4158C78.3926 19.5158 77.7526 19.6658 77.2126 19.8658L76.6426 16.2658C76.9026 16.1858 77.2226 16.1058 77.6026 16.0258C78.0026 15.9258 78.4326 15.8458 78.8926 15.7858C79.3526 15.7058 79.8326 15.6458 80.3326 15.6058C80.8526 15.5458 81.3726 15.5158 81.8926 15.5158ZM99.0746 20.7358L102.195 15.9358H106.815L101.415 23.5258C102.615 25.0258 103.705 26.4858 104.685 27.9058C105.665 29.3258 106.445 30.5958 107.025 31.7158H102.225C102.065 31.4158 101.865 31.0458 101.625 30.6058C101.385 30.1458 101.115 29.6758 100.815 29.1958C100.515 28.6958 100.195 28.2058 99.8546 27.7258C99.5346 27.2258 99.2146 26.7758 98.8946 26.3758C98.5946 26.7558 98.2846 27.1758 97.9646 27.6358C97.6646 28.0958 97.3746 28.5658 97.0946 29.0458C96.8146 29.5058 96.5346 29.9658 96.2546 30.4258C95.9946 30.8858 95.7646 31.3158 95.5646 31.7158H91.0046C91.2446 31.2158 91.5746 30.6258 91.9946 29.9458C92.4146 29.2658 92.8646 28.5658 93.3446 27.8458C93.8446 27.1058 94.3646 26.3758 94.9046 25.6558C95.4446 24.9158 95.9746 24.2258 96.4946 23.5858C95.5946 22.3258 94.6946 21.0558 93.7946 19.7758C92.8946 18.4758 92.0046 17.1958 91.1246 15.9358H95.9546L99.0746 20.7358Z" fill="white"/>
<path d="M52.6226 11.7158L60.8498 30.4658H44.3953L52.6226 11.7158Z" fill="#FEBA66"/>
<path d="M62.6226 11.7158L70.8498 30.4658H54.3953L62.6226 11.7158Z" fill="#EDA54C"/>
</svg>
