<svg width="160" height="36" viewBox="0 0 160 36" fill="none" xmlns="http://www.w3.org/2000/svg">
<path d="M49.8917 17.53C50.9897 17.764 51.8717 18.313 52.5377 19.177C53.2037 20.023 53.5367 20.995 53.5367 22.093C53.5367 23.677 52.9787 24.937 51.8627 25.873C50.7647 26.791 49.2257 27.25 47.2457 27.25H38.4167V8.296H46.9487C48.8747 8.296 50.3777 8.737 51.4577 9.619C52.5557 10.501 53.1047 11.698 53.1047 13.21C53.1047 14.326 52.8077 15.253 52.2137 15.991C51.6377 16.729 50.8637 17.242 49.8917 17.53ZM43.0337 15.964H46.0577C46.8137 15.964 47.3897 15.802 47.7857 15.478C48.1997 15.136 48.4067 14.641 48.4067 13.993C48.4067 13.345 48.1997 12.85 47.7857 12.508C47.3897 12.166 46.8137 11.995 46.0577 11.995H43.0337V15.964ZM46.4357 23.524C47.2097 23.524 47.8037 23.353 48.2177 23.011C48.6497 22.651 48.8657 22.138 48.8657 21.472C48.8657 20.806 48.6407 20.284 48.1907 19.906C47.7587 19.528 47.1557 19.339 46.3817 19.339H43.0337V23.524H46.4357ZM58.5365 10.618C57.7265 10.618 57.0605 10.384 56.5385 9.916C56.0345 9.43 55.7825 8.836 55.7825 8.134C55.7825 7.414 56.0345 6.82 56.5385 6.352C57.0605 5.866 57.7265 5.623 58.5365 5.623C59.3285 5.623 59.9765 5.866 60.4805 6.352C61.0025 6.82 61.2635 7.414 61.2635 8.134C61.2635 8.836 61.0025 9.43 60.4805 9.916C59.9765 10.384 59.3285 10.618 58.5365 10.618ZM60.8315 12.184V27.25H56.2145V12.184H60.8315ZM72.5744 23.335V27.25H70.2254C68.5514 27.25 67.2464 26.845 66.3104 26.035C65.3744 25.207 64.9064 23.866 64.9064 22.012V16.018H63.0704V12.184H64.9064V8.512H69.5234V12.184H72.5474V16.018H69.5234V22.066C69.5234 22.516 69.6314 22.84 69.8474 23.038C70.0634 23.236 70.4234 23.335 70.9274 23.335H72.5744ZM83.5432 23.335V27.25H81.1942C79.5202 27.25 78.2152 26.845 77.2792 26.035C76.3432 25.207 75.8752 23.866 75.8752 22.012V16.018H74.0392V12.184H75.8752V8.512H80.4922V12.184H83.5162V16.018H80.4922V22.066C80.4922 22.516 80.6002 22.84 80.8162 23.038C81.0322 23.236 81.3922 23.335 81.8962 23.335H83.5432ZM92.9729 27.466C91.4969 27.466 90.1649 27.151 88.9769 26.521C87.8069 25.891 86.8799 24.991 86.1959 23.821C85.5299 22.651 85.1969 21.283 85.1969 19.717C85.1969 18.169 85.5389 16.81 86.2229 15.64C86.9069 14.452 87.8429 13.543 89.0309 12.913C90.2189 12.283 91.5509 11.968 93.0269 11.968C94.5029 11.968 95.8349 12.283 97.0229 12.913C98.2109 13.543 99.1469 14.452 99.8309 15.64C100.515 16.81 100.857 18.169 100.857 19.717C100.857 21.265 100.506 22.633 99.8039 23.821C99.1199 24.991 98.1749 25.891 96.9689 26.521C95.7809 27.151 94.4489 27.466 92.9729 27.466ZM92.9729 23.47C93.8549 23.47 94.6019 23.146 95.2139 22.498C95.8439 21.85 96.1589 20.923 96.1589 19.717C96.1589 18.511 95.8529 17.584 95.2409 16.936C94.6469 16.288 93.9089 15.964 93.0269 15.964C92.1269 15.964 91.3799 16.288 90.7859 16.936C90.1919 17.566 89.8949 18.493 89.8949 19.717C89.8949 20.923 90.1829 21.85 90.7589 22.498C91.3529 23.146 92.0909 23.47 92.9729 23.47ZM107.923 14.695C108.463 13.867 109.138 13.219 109.948 12.751C110.758 12.265 111.658 12.022 112.648 12.022V16.909H111.379C110.227 16.909 109.363 17.161 108.787 17.665C108.211 18.151 107.923 19.015 107.923 20.257V27.25H103.306V12.184H107.923V14.695ZM129.057 19.474C129.057 19.906 129.03 20.356 128.976 20.824H118.527C118.599 21.76 118.896 22.48 119.418 22.984C119.958 23.47 120.615 23.713 121.389 23.713C122.541 23.713 123.342 23.227 123.792 22.255H128.706C128.454 23.245 127.995 24.136 127.329 24.928C126.681 25.72 125.862 26.341 124.872 26.791C123.882 27.241 122.775 27.466 121.551 27.466C120.075 27.466 118.761 27.151 117.609 26.521C116.457 25.891 115.557 24.991 114.909 23.821C114.261 22.651 113.937 21.283 113.937 19.717C113.937 18.151 114.252 16.783 114.882 15.613C115.53 14.443 116.43 13.543 117.582 12.913C118.734 12.283 120.057 11.968 121.551 11.968C123.009 11.968 124.305 12.274 125.439 12.886C126.573 13.498 127.455 14.371 128.085 15.505C128.733 16.639 129.057 17.962 129.057 19.474ZM124.332 18.259C124.332 17.467 124.062 16.837 123.522 16.369C122.982 15.901 122.307 15.667 121.497 15.667C120.723 15.667 120.066 15.892 119.526 16.342C119.004 16.792 118.68 17.431 118.554 18.259H124.332ZM140.673 12.022C142.437 12.022 143.841 12.598 144.885 13.75C145.947 14.884 146.478 16.45 146.478 18.448V27.25H141.888V19.069C141.888 18.061 141.627 17.278 141.105 16.72C140.583 16.162 139.881 15.883 138.999 15.883C138.117 15.883 137.415 16.162 136.893 16.72C136.371 17.278 136.11 18.061 136.11 19.069V27.25H131.493V12.184H136.11V14.182C136.578 13.516 137.208 12.994 138 12.616C138.792 12.22 139.683 12.022 140.673 12.022ZM158.083 23.335V27.25H155.734C154.06 27.25 152.755 26.845 151.819 26.035C150.883 25.207 150.415 23.866 150.415 22.012V16.018H148.579V12.184H150.415V8.512H155.032V12.184H158.056V16.018H155.032V22.066C155.032 22.516 155.14 22.84 155.356 23.038C155.572 23.236 155.932 23.335 156.436 23.335H158.083Z" fill="white"/>
<rect x="0.742676" y="3.25" width="9" height="9" fill="#3EBA59"/>
<rect x="0.742676" y="12.25" width="9" height="10" fill="#83EBFF"/>
<rect x="0.742676" y="22.25" width="9" height="9" fill="#20C1E1"/>
<rect x="9.74268" y="3.25" width="10" height="9" fill="#83EBFF"/>
<rect x="9.74268" y="22.25" width="10" height="9" fill="#83EBFF"/>
<rect x="19.7427" y="3.25" width="9" height="9" fill="#20C1E1"/>
<rect x="19.7427" y="12.25" width="9" height="10" fill="#83EBFF"/>
<rect x="19.7427" y="22.25" width="9" height="9" fill="#3EBA59"/>
<rect x="5.74268" y="8.25" width="18" height="18" fill="white"/>
</svg>
