<svg width="92" height="38" viewBox="0 0 92 38" fill="none" xmlns="http://www.w3.org/2000/svg">
<path d="M0.0742188 23.5956V0.852051H13.6044V23.5845H0.0742188V23.5956ZM11.9651 18.3043L12.3132 15.7921L11.0556 15.6698L10.6738 17.604C9.88782 17.9931 8.92218 18.182 7.76566 18.182C6.19369 18.182 4.94733 17.6929 4.03783 16.7036C3.11711 15.7143 2.66797 14.4137 2.66797 12.7907C2.66797 11.2122 3.11711 9.91167 4.00415 8.88899C4.89119 7.8663 6.05897 7.35496 7.50743 7.35496C8.2485 7.35496 8.87727 7.44389 9.38255 7.61063C9.88783 7.77737 10.3482 7.9997 10.7861 8.28872L11.1567 10.2007L12.4367 10.0784L12.0661 7.56617C11.5272 7.11041 10.8871 6.74358 10.1461 6.45456C9.405 6.17666 8.48429 6.03215 7.39514 6.03215C6.10388 6.03215 4.99227 6.3434 4.06031 6.97702C3.12836 7.61063 2.39851 8.44434 1.882 9.47814C1.3655 10.523 1.10724 11.6458 1.10724 12.8463C1.10724 14.7472 1.70234 16.3368 2.89255 17.604C4.08276 18.8712 5.63227 19.5049 7.55232 19.5049C9.43869 19.5049 10.9096 19.1047 11.9651 18.3043Z" fill="white"/>
<path d="M18.1973 23.5956V0.852051H24.0136V23.5845H18.1973V23.5956ZM18.8148 19.3048H23.4072V18.1598H21.824V5.46523H18.7924V6.61019H20.398V18.1598H18.8148V19.3048Z" fill="white"/>
<path d="M28.606 23.5956V0.852051H38.8238V23.5845H28.606V23.5956ZM30.4586 11.0344L30.133 13.102L31.312 13.2465L31.6601 11.7014C32.1654 11.4568 32.738 11.3345 33.4117 11.3345C34.2201 11.3345 34.7704 11.5346 35.0511 11.9348C35.3318 12.335 35.4665 12.8574 35.4665 13.5022V14.3025C35.2195 14.2803 34.9612 14.2581 34.6805 14.2469C34.3998 14.2358 34.1303 14.2247 33.8609 14.2247C32.8503 14.2247 31.8846 14.4026 30.9864 14.7583C30.0881 15.114 29.639 15.8588 29.639 16.9815C29.639 17.9375 29.9422 18.5933 30.5597 18.949C31.1773 19.3159 31.7836 19.4937 32.3787 19.4937C33.1086 19.4937 33.7373 19.3048 34.2538 18.9268C34.7703 18.5489 35.1746 18.1265 35.4665 17.6373V17.6818C35.489 18.8935 36.0392 19.4937 37.1171 19.4937C37.5325 19.4937 37.9255 19.3937 38.296 19.1936L38.2736 18.271C38.094 18.3488 37.8918 18.3932 37.6673 18.3932C37.1508 18.3932 36.8925 18.0709 36.8925 17.4261V13.1687C36.8925 11.1678 35.8146 10.1673 33.6587 10.1673C33.0636 10.1673 32.5022 10.234 31.9745 10.3674C31.4355 10.5119 30.9302 10.7343 30.4586 11.0344ZM35.4553 15.9477C35.3991 16.6814 35.096 17.2705 34.5458 17.6929C33.9956 18.1265 33.4117 18.3377 32.7829 18.3377C32.3899 18.3377 32.0082 18.2265 31.6489 18.0153C31.2783 17.8041 31.0987 17.4039 31.0987 16.8259C31.0987 16.1256 31.3794 15.6809 31.9183 15.4697C32.4685 15.2585 33.0748 15.1585 33.7598 15.1585C34.0629 15.1585 34.3549 15.1696 34.6356 15.2029C34.9163 15.2252 35.197 15.2474 35.444 15.2585V15.9477H35.4553Z" fill="white"/>
<path d="M43.4272 23.5956V0.852051H52.7131V23.5845H43.4272V23.5956ZM51.7362 16.7147C51.7362 16.0033 51.5453 15.4808 51.1636 15.1362C50.7818 14.7916 50.3215 14.5582 49.76 14.4248C49.1986 14.2914 48.6484 14.1802 48.0983 14.0913C47.5481 14.0024 47.0765 13.8579 46.6947 13.6689C46.3129 13.4799 46.122 13.1464 46.122 12.6685C46.122 12.2127 46.3017 11.8792 46.6722 11.6569C47.0428 11.4346 47.5031 11.3345 48.0758 11.3345C48.7382 11.3345 49.3558 11.479 49.9285 11.7792L50.1531 13.2243L51.332 13.0798L51.1075 10.9899C50.7257 10.7565 50.2653 10.5675 49.7151 10.4119C49.165 10.2563 48.5811 10.1673 47.9523 10.1673C47.1214 10.1673 46.3579 10.3674 45.6505 10.7565C44.9431 11.1455 44.595 11.8125 44.595 12.7685C44.595 13.4688 44.7859 13.9802 45.1676 14.3025C45.5494 14.636 46.021 14.8583 46.5937 14.9917C47.1663 15.1251 47.7277 15.2363 48.2891 15.3363C48.8505 15.4252 49.3221 15.5809 49.7039 15.781C50.0857 15.9811 50.2766 16.3256 50.2766 16.8259C50.2766 17.3372 50.0295 17.7152 49.5354 17.9597C49.0414 18.2043 48.48 18.3265 47.84 18.3265C47.1214 18.3265 46.4477 18.182 45.8301 17.8819L45.8863 16.6925L44.7522 16.5702L44.4715 18.6044C44.8645 18.8601 45.381 19.0713 46.0098 19.2381C46.6385 19.4048 47.2673 19.4937 47.9074 19.4937C48.9965 19.4937 49.906 19.2492 50.6359 18.749C51.3657 18.271 51.7362 17.5818 51.7362 16.7147Z" fill="white"/>
<path d="M57.3057 23.5956V0.852051H66.5915V23.5845H57.3057V23.5956ZM65.6146 16.7147C65.6146 16.0033 65.4237 15.4808 65.042 15.1362C64.6602 14.7916 64.1998 14.5582 63.6384 14.4248C63.077 14.2914 62.5268 14.1802 61.9766 14.0913C61.4264 14.0024 60.9549 13.8579 60.5731 13.6689C60.1913 13.4799 60.0004 13.1464 60.0004 12.6685C60.0004 12.2127 60.1801 11.8792 60.5506 11.6569C60.9211 11.4346 61.3815 11.3345 61.9542 11.3345C62.6166 11.3345 63.2342 11.479 63.8069 11.7792L64.0314 13.2243L65.2104 13.0798L64.9858 10.9899C64.6041 10.7565 64.1437 10.5675 63.5935 10.4119C63.0433 10.2563 62.4595 10.1673 61.8307 10.1673C60.9998 10.1673 60.2362 10.3674 59.5289 10.7565C58.8215 11.1455 58.4734 11.8125 58.4734 12.7685C58.4734 13.4688 58.6643 13.9802 59.046 14.3025C59.4278 14.636 59.8994 14.8583 60.4721 14.9917C61.0447 15.1251 61.6061 15.2363 62.1675 15.3363C62.7289 15.4252 63.2005 15.5809 63.5823 15.781C63.9641 15.9811 64.1549 16.3256 64.1549 16.8259C64.1549 17.3372 63.9079 17.7152 63.4139 17.9597C62.9199 18.2043 62.3584 18.3265 61.7184 18.3265C60.9998 18.3265 60.326 18.182 59.7085 17.8819L59.7647 16.6925L58.6306 16.5702L58.3499 18.6044C58.7429 18.8601 59.2594 19.0713 59.8882 19.2381C60.517 19.4048 61.1458 19.4937 61.7858 19.4937C62.8749 19.4937 63.7844 19.2492 64.5143 18.749C65.2441 18.271 65.6146 17.5818 65.6146 16.7147Z" fill="white"/>
<path d="M71.1836 23.5956V0.852051H77.3031V23.5845H71.1836V23.5956ZM72.0818 19.3048H76.6743V18.1598H75.091V10.3563H72.0482V11.5013H73.6763V18.1598H72.0931V19.3048H72.0818ZM73.5191 6.21001V8.04416H75.0686V6.21001H73.5191Z" fill="white"/>
<path d="M81.8955 23.5956V0.852051H91.6754V23.5845H81.8955V23.5956ZM90.7996 16.2923L89.5757 16.0255C89.3063 17.5373 88.4866 18.2932 87.1392 18.2932C86.2409 18.2932 85.556 17.9931 85.0844 17.3928C84.6128 16.7925 84.377 15.9477 84.377 14.8806C84.377 13.9135 84.5903 13.0909 85.0058 12.4017C85.4212 11.7125 86.1174 11.379 87.083 11.379C87.8241 11.379 88.4754 11.5457 89.0143 11.8792L89.3624 13.391L90.5414 13.2465L90.1933 11.09C89.7329 10.7454 89.2501 10.5008 88.7449 10.3674C88.2396 10.234 87.6894 10.1673 87.0943 10.1673C85.6907 10.1673 84.624 10.6564 83.9278 11.6347C83.2205 12.6129 82.8724 13.7245 82.8724 14.9584C82.8724 16.3923 83.2429 17.5151 83.9952 18.3043C84.7363 19.1047 85.7356 19.5049 86.982 19.5049C88.2283 19.5049 89.1491 19.1603 89.733 18.4822C90.3168 17.793 90.6761 17.0704 90.7996 16.2923Z" fill="white"/>
<path d="M5.9244 36.0122C5.66615 36.4791 5.28437 36.8459 4.79032 37.1016C4.28504 37.3573 3.68993 37.4907 2.99378 37.4907H0.983887V31.2212H2.99378C3.68993 31.2212 4.29627 31.3435 4.79032 31.5991C5.28437 31.8548 5.66615 32.2105 5.9244 32.6885C6.18265 33.1665 6.30616 33.7112 6.30616 34.3559C6.30616 34.9895 6.18265 35.5453 5.9244 36.0122ZM4.81277 36.1345C5.25067 35.7121 5.46403 35.1229 5.46403 34.3559C5.46403 33.5889 5.25067 32.9998 4.81277 32.5774C4.37486 32.1549 3.74607 31.9437 2.91517 31.9437H1.78113V36.7681H2.91517C3.74607 36.7681 4.37486 36.5569 4.81277 36.1345Z" fill="#FF5196"/>
<path d="M10.472 31.877V34.0224H12.8749V34.6449H10.472V36.8348H13.1444V37.4907H9.65234V31.2212H13.1444V31.877H10.472Z" fill="#FF5196"/>
<path d="M20.241 36.6906C20.095 36.9463 19.8816 37.1575 19.5897 37.3131C19.2977 37.4687 18.9384 37.5577 18.5005 37.5577C18.0851 37.5577 17.7033 37.4798 17.3777 37.3353C17.0521 37.1797 16.7938 36.9796 16.5917 36.7128C16.4008 36.446 16.2885 36.1459 16.2549 35.8124H17.1307C17.1531 35.9903 17.2093 36.1681 17.3103 36.3349C17.4114 36.5016 17.5686 36.6461 17.7595 36.7573C17.9503 36.8685 18.1861 36.924 18.4668 36.924C18.8262 36.924 19.1069 36.8351 19.2978 36.635C19.4887 36.4349 19.5897 36.2015 19.5897 35.9014C19.5897 35.6457 19.5223 35.4345 19.3876 35.2789C19.2528 35.1232 19.0844 34.9898 18.8935 34.9009C18.7026 34.812 18.4219 34.7119 18.0851 34.6008C17.6809 34.4674 17.3665 34.3451 17.1195 34.2339C16.8724 34.1228 16.6703 33.9449 16.5019 33.7115C16.3335 33.478 16.2437 33.1779 16.2437 32.8C16.2437 32.4776 16.3222 32.1886 16.4794 31.9329C16.6366 31.6884 16.8612 31.4883 17.1644 31.3549C17.4563 31.2215 17.8156 31.1548 18.2086 31.1548C18.8262 31.1548 19.3314 31.2993 19.6907 31.5994C20.0613 31.8996 20.2634 32.2775 20.3308 32.7444H19.455C19.41 32.4998 19.2753 32.2775 19.0732 32.0885C18.8599 31.8996 18.5791 31.7995 18.2198 31.7995C17.8942 31.7995 17.6247 31.8884 17.4339 32.0552C17.2317 32.2219 17.1419 32.4665 17.1419 32.7666C17.1419 33.0112 17.2093 33.2113 17.3328 33.3558C17.4675 33.5114 17.6247 33.6226 17.8156 33.7115C18.0065 33.8004 18.276 33.8893 18.6016 34.0005C19.0058 34.1339 19.3314 34.2562 19.5897 34.3785C19.8367 34.5007 20.05 34.6786 20.2185 34.912C20.3869 35.1455 20.4767 35.4678 20.4767 35.868C20.4543 36.157 20.3869 36.4349 20.241 36.6906Z" fill="#FF5196"/>
<path d="M24.6195 31.2212V37.4907H23.7998V31.2212H24.6195Z" fill="#FF5196"/>
<path d="M32.9063 31.6992C33.4116 32.0661 33.7484 32.5552 33.9169 33.1777H33.0523C32.9063 32.7997 32.6481 32.4885 32.3 32.2662C31.9519 32.0327 31.5365 31.9216 31.0536 31.9216C30.627 31.9216 30.2339 32.0216 29.8971 32.2217C29.5602 32.4218 29.2908 32.6997 29.0887 33.0665C28.8978 33.4333 28.7967 33.8669 28.7967 34.3671C28.7967 34.8784 28.8978 35.3231 29.0887 35.6899C29.2796 36.0567 29.5603 36.3458 29.9083 36.5459C30.2564 36.7459 30.6607 36.846 31.121 36.846C31.514 36.846 31.8621 36.7571 32.1877 36.6014C32.5133 36.4347 32.7716 36.1901 32.9849 35.8789C33.1982 35.5676 33.3105 35.1897 33.3555 34.7673H30.8628V34.167H34.0404V34.9118C33.9842 35.412 33.827 35.8567 33.5688 36.2679C33.3105 36.6792 32.9625 36.9905 32.5246 37.2239C32.0867 37.4574 31.5926 37.5796 31.0312 37.5796C30.4248 37.5796 29.8859 37.4463 29.4143 37.1795C28.9427 36.9127 28.5834 36.5347 28.3251 36.0456C28.0669 35.5676 27.9321 35.0118 27.9321 34.3893C27.9321 33.7668 28.0669 33.211 28.3251 32.733C28.5834 32.255 28.9539 31.866 29.4143 31.5992C29.8746 31.3324 30.4136 31.1879 31.0199 31.1879C31.7835 31.1657 32.401 31.3435 32.9063 31.6992Z" fill="#FF5196"/>
<path d="M42.3267 37.4907H41.5071L38.2171 32.5329V37.4907H37.3975V31.2212H38.2171L41.5071 36.179V31.2212H42.3267V37.4907Z" fill="#FF5196"/>
<path d="M54.1389 36.6906C53.9929 36.9463 53.7796 37.1575 53.4876 37.3131C53.1957 37.4687 52.8364 37.5577 52.3985 37.5577C51.9831 37.5577 51.6013 37.4798 51.2757 37.3353C50.9501 37.1797 50.6918 36.9796 50.4897 36.7128C50.2988 36.446 50.1865 36.1459 50.1528 35.8124H51.0286C51.0511 35.9903 51.1073 36.1681 51.2083 36.3349C51.3094 36.5016 51.4665 36.6461 51.6574 36.7573C51.8483 36.8685 52.0841 36.924 52.3648 36.924C52.7241 36.924 53.0048 36.8351 53.1957 36.635C53.3866 36.4349 53.4876 36.2015 53.4876 35.9014C53.4876 35.6457 53.4203 35.4345 53.2855 35.2789C53.1508 35.1232 52.9824 34.9898 52.7915 34.9009C52.6006 34.812 52.3199 34.7119 51.9831 34.6008C51.5788 34.4674 51.2644 34.3451 51.0174 34.2339C50.7704 34.1228 50.5683 33.9449 50.3998 33.7115C50.2314 33.478 50.1416 33.1779 50.1416 32.8C50.1416 32.4776 50.2202 32.1886 50.3774 31.9329C50.5346 31.6884 50.7592 31.4883 51.0623 31.3549C51.3543 31.2215 51.7136 31.1548 52.1066 31.1548C52.7241 31.1548 53.2294 31.2993 53.5887 31.5994C53.9593 31.8996 54.1614 32.2775 54.2287 32.7444H53.3529C53.308 32.4998 53.1732 32.2775 52.9711 32.0885C52.7578 31.8996 52.4771 31.7995 52.1178 31.7995C51.7922 31.7995 51.5227 31.8884 51.3318 32.0552C51.1297 32.2219 51.0399 32.4665 51.0399 32.7666C51.0399 33.0112 51.1072 33.2113 51.2307 33.3558C51.3655 33.5114 51.5227 33.6226 51.7135 33.7115C51.9044 33.8004 52.1739 33.8893 52.4995 34.0005C52.9038 34.1339 53.2294 34.2562 53.4876 34.3785C53.7347 34.5007 53.948 34.6786 54.1164 34.912C54.2848 35.1455 54.3747 35.4678 54.3747 35.868C54.3522 36.157 54.2849 36.4349 54.1389 36.6906Z" fill="#FF5196"/>
<path d="M61.5832 31.2212V31.877H59.7979V37.4907H58.967V31.877H57.1816V31.2212H61.5832Z" fill="#FF5196"/>
<path d="M65.4017 31.2212V34.9784C65.4017 35.5898 65.5364 36.0456 65.8171 36.3457C66.0978 36.6347 66.4684 36.7904 66.9624 36.7904C67.4452 36.7904 67.8158 36.6458 68.0853 36.3457C68.3547 36.0456 68.4895 35.6009 68.4895 34.9895V31.2323H69.3092V34.9895C69.3092 35.8455 69.0958 36.4902 68.6692 36.9126C68.2425 37.3462 67.6698 37.5574 66.9512 37.5574C66.2438 37.5574 65.6712 37.3462 65.2445 36.9126C64.8178 36.4791 64.6045 35.8455 64.6045 34.9895V31.2323H65.4017V31.2212Z" fill="#FF5196"/>
<path d="M77.7632 36.0122C77.5049 36.4791 77.1232 36.8459 76.6291 37.1016C76.1238 37.3573 75.5288 37.4907 74.8326 37.4907H72.8228V31.2212H74.8326C75.5288 31.2212 76.1351 31.3435 76.6291 31.5991C77.1232 31.8548 77.5049 32.2105 77.7632 32.6885C78.0214 33.1665 78.145 33.7112 78.145 34.3559C78.145 34.9895 78.0214 35.5453 77.7632 36.0122ZM76.6628 36.1345C77.1007 35.7121 77.3141 35.1229 77.3141 34.3559C77.3141 33.5889 77.1007 32.9998 76.6628 32.5774C76.2249 32.1549 75.5961 31.9437 74.7652 31.9437H73.6312V36.7681H74.7652C75.5849 36.7681 76.2249 36.5569 76.6628 36.1345Z" fill="#FF5196"/>
<path d="M82.3221 31.2212V37.4907H81.5024V31.2212H82.3221Z" fill="#FF5196"/>
<path d="M90.3619 31.5548C90.8335 31.8328 91.204 32.2107 91.4735 32.6998C91.743 33.1889 91.8777 33.7447 91.8777 34.3561C91.8777 34.9675 91.743 35.5233 91.4735 36.0124C91.204 36.5015 90.8335 36.8795 90.3619 37.1574C89.8903 37.4353 89.3626 37.5687 88.7787 37.5687C88.1948 37.5687 87.6559 37.4353 87.1843 37.1574C86.7127 36.8795 86.3309 36.5015 86.0614 36.0124C85.792 35.5233 85.6572 34.9675 85.6572 34.3561C85.6572 33.7447 85.792 33.1889 86.0614 32.6998C86.3309 32.2107 86.7014 31.8328 87.1843 31.5548C87.6671 31.2769 88.1948 31.1436 88.7787 31.1436C89.3626 31.1436 89.8903 31.2769 90.3619 31.5548ZM87.5997 32.1996C87.2516 32.3997 86.9822 32.6776 86.7913 33.0555C86.6004 33.4224 86.4994 33.8559 86.4994 34.3561C86.4994 34.8452 86.6004 35.2787 86.7913 35.6567C86.9822 36.0346 87.2516 36.3125 87.5997 36.5126C87.9478 36.7127 88.3295 36.8128 88.7674 36.8128C89.1941 36.8128 89.5872 36.7127 89.9352 36.5126C90.2833 36.3125 90.5528 36.0235 90.7436 35.6567C90.9345 35.2899 91.0356 34.8563 91.0356 34.3672C91.0356 33.867 90.9345 33.4335 90.7436 33.0666C90.5528 32.6998 90.2833 32.4108 89.9352 32.2107C89.5872 32.0106 89.2053 31.9106 88.7674 31.9106C88.3408 31.8994 87.9478 31.9995 87.5997 32.1996Z" fill="#FF5196"/>
</svg>
