<svg width="99" height="40" viewBox="0 0 99 40" fill="none" xmlns="http://www.w3.org/2000/svg">
<path d="M12.6227 31.67C9.24268 31.67 6.66268 30.73 4.88268 28.85C3.12268 26.97 2.24268 24.3 2.24268 20.84C2.24268 19.12 2.51268 17.59 3.05268 16.25C3.59268 14.89 4.33268 13.75 5.27268 12.83C6.21268 11.89 7.33268 11.18 8.63268 10.7C9.93268 10.22 11.3427 9.98 12.8627 9.98C13.7427 9.98 14.5427 10.05 15.2627 10.19C15.9827 10.31 16.6127 10.46 17.1527 10.64C17.6927 10.8 18.1427 10.97 18.5027 11.15C18.8627 11.33 19.1227 11.47 19.2827 11.57L17.9327 15.35C17.2927 15.01 16.5427 14.72 15.6827 14.48C14.8427 14.24 13.8827 14.12 12.8027 14.12C12.0827 14.12 11.3727 14.24 10.6727 14.48C9.99268 14.72 9.38268 15.11 8.84268 15.65C8.32268 16.17 7.90268 16.85 7.58268 17.69C7.26268 18.53 7.10268 19.55 7.10268 20.75C7.10268 21.71 7.20268 22.61 7.40268 23.45C7.62268 24.27 7.96268 24.98 8.42268 25.58C8.90268 26.18 9.52268 26.66 10.2827 27.02C11.0427 27.36 11.9627 27.53 13.0427 27.53C13.7227 27.53 14.3327 27.49 14.8727 27.41C15.4127 27.33 15.8927 27.24 16.3127 27.14C16.7327 27.02 17.1027 26.89 17.4227 26.75C17.7427 26.61 18.0327 26.48 18.2927 26.36L19.5827 30.11C18.9227 30.51 17.9927 30.87 16.7927 31.19C15.5927 31.51 14.2027 31.67 12.6227 31.67ZM36.7042 23.33C36.7042 24.57 36.5242 25.71 36.1642 26.75C35.8042 27.77 35.2842 28.65 34.6042 29.39C33.9242 30.11 33.1042 30.67 32.1442 31.07C31.2042 31.47 30.1442 31.67 28.9642 31.67C27.8042 31.67 26.7442 31.47 25.7842 31.07C24.8442 30.67 24.0342 30.11 23.3542 29.39C22.6742 28.65 22.1442 27.77 21.7642 26.75C21.3842 25.71 21.1942 24.57 21.1942 23.33C21.1942 22.09 21.3842 20.96 21.7642 19.94C22.1642 18.92 22.7042 18.05 23.3842 17.33C24.0842 16.61 24.9042 16.05 25.8442 15.65C26.8042 15.25 27.8442 15.05 28.9642 15.05C30.1042 15.05 31.1442 15.25 32.0842 15.65C33.0442 16.05 33.8642 16.61 34.5442 17.33C35.2242 18.05 35.7542 18.92 36.1342 19.94C36.5142 20.96 36.7042 22.09 36.7042 23.33ZM32.1442 23.33C32.1442 21.95 31.8642 20.87 31.3042 20.09C30.7642 19.29 29.9842 18.89 28.9642 18.89C27.9442 18.89 27.1542 19.29 26.5942 20.09C26.0342 20.87 25.7542 21.95 25.7542 23.33C25.7542 24.71 26.0342 25.81 26.5942 26.63C27.1542 27.43 27.9442 27.83 28.9642 27.83C29.9842 27.83 30.7642 27.43 31.3042 26.63C31.8642 25.81 32.1442 24.71 32.1442 23.33ZM44.6369 31.25H40.1669V15.47H44.6369V31.25ZM45.0569 10.91C45.0569 11.73 44.7869 12.38 44.2469 12.86C43.7269 13.32 43.1069 13.55 42.3869 13.55C41.6669 13.55 41.0369 13.32 40.4969 12.86C39.9769 12.38 39.7169 11.73 39.7169 10.91C39.7169 10.09 39.9769 9.45 40.4969 8.99C41.0369 8.51 41.6669 8.27 42.3869 8.27C43.1069 8.27 43.7269 8.51 44.2469 8.99C44.7869 9.45 45.0569 10.09 45.0569 10.91ZM48.8388 16.01C49.5988 15.79 50.5788 15.59 51.7788 15.41C52.9788 15.21 54.2388 15.11 55.5588 15.11C56.8988 15.11 58.0088 15.29 58.8888 15.65C59.7888 15.99 60.4988 16.48 61.0188 17.12C61.5388 17.76 61.9088 18.52 62.1288 19.4C62.3488 20.28 62.4588 21.26 62.4588 22.34V31.25H57.9888V22.88C57.9888 21.44 57.7988 20.42 57.4188 19.82C57.0388 19.22 56.3288 18.92 55.2888 18.92C54.9688 18.92 54.6288 18.94 54.2688 18.98C53.9088 19 53.5888 19.03 53.3088 19.07V31.25H48.8388V16.01Z" fill="white"/>
<path d="M72.7748 20.27L75.8948 15.47H80.5148L75.1148 23.06C76.3148 24.56 77.4048 26.02 78.3848 27.44C79.3648 28.86 80.1448 30.13 80.7248 31.25H75.9248C75.7648 30.95 75.5648 30.58 75.3248 30.14C75.0848 29.68 74.8148 29.21 74.5148 28.73C74.2148 28.23 73.8948 27.74 73.5548 27.26C73.2348 26.76 72.9148 26.31 72.5948 25.91C72.2948 26.29 71.9848 26.71 71.6648 27.17C71.3648 27.63 71.0748 28.1 70.7948 28.58C70.5148 29.04 70.2348 29.5 69.9548 29.96C69.6948 30.42 69.4648 30.85 69.2648 31.25H64.7048C64.9448 30.75 65.2748 30.16 65.6948 29.48C66.1148 28.8 66.5648 28.1 67.0448 27.38C67.5448 26.64 68.0648 25.91 68.6048 25.19C69.1448 24.45 69.6748 23.76 70.1948 23.12C69.2948 21.86 68.3948 20.59 67.4948 19.31C66.5948 18.01 65.7048 16.73 64.8248 15.47H69.6548L72.7748 20.27ZM97.8585 15.47C96.9585 18.51 96.0185 21.36 95.0385 24.02C94.0585 26.68 92.9885 29.26 91.8285 31.76C91.4085 32.66 90.9885 33.42 90.5685 34.04C90.1485 34.68 89.6885 35.2 89.1885 35.6C88.6885 36.02 88.1185 36.32 87.4785 36.5C86.8585 36.7 86.1285 36.8 85.2885 36.8C84.5885 36.8 83.9385 36.73 83.3385 36.59C82.7585 36.47 82.2785 36.33 81.8985 36.17L82.6785 32.6C83.1385 32.76 83.5485 32.87 83.9085 32.93C84.2685 32.99 84.6485 33.02 85.0485 33.02C85.8485 33.02 86.4585 32.8 86.8785 32.36C87.3185 31.94 87.6885 31.35 87.9885 30.59C86.9685 28.59 85.9485 26.35 84.9285 23.87C83.9085 21.37 82.9485 18.57 82.0485 15.47H86.7885C86.9885 16.25 87.2185 17.1 87.4785 18.02C87.7585 18.92 88.0485 19.84 88.3485 20.78C88.6485 21.7 88.9485 22.6 89.2485 23.48C89.5685 24.36 89.8685 25.16 90.1485 25.88C90.4085 25.16 90.6785 24.36 90.9585 23.48C91.2385 22.6 91.5085 21.7 91.7685 20.78C92.0485 19.84 92.3085 18.92 92.5485 18.02C92.8085 17.1 93.0385 16.25 93.2385 15.47H97.8585Z" fill="#7782FF"/>
</svg>
