<svg width="159" height="49" viewBox="0 0 159 49" fill="none" xmlns="http://www.w3.org/2000/svg">
<path d="M148.553 8.24334C146.049 7.18731 143.5 6.36472 140.918 5.71998C138.346 5.0419 135.741 4.56391 133.125 4.23043C131.823 4.03034 130.498 3.98587 129.195 3.83025C127.882 3.7969 126.579 3.66351 125.265 3.71909C124.614 3.7302 123.952 3.7302 123.3 3.71909C122.649 3.71909 121.987 3.78578 121.335 3.80802C120.684 3.85248 120.022 3.8636 119.37 3.93029L117.417 4.16373C114.801 4.37494 112.263 4.90851 109.725 5.56436C107.154 6.17574 104.717 7.0428 102.124 7.90985C99.4626 8.78803 96.5769 9.3216 93.68 8.92142C92.254 8.68798 90.8167 8.18776 89.6827 7.29847C88.5261 6.4203 87.7401 5.21976 87.2573 3.96364C88.0545 5.06413 89.0426 5.96454 90.1767 6.52034C91.3108 7.07615 92.5571 7.30958 93.8035 7.29847C96.3186 7.29847 98.8113 6.49811 101.169 5.49766C103.572 4.36382 106.211 3.36337 108.838 2.54078C111.488 1.75154 114.25 1.15127 117.013 0.862254C122.526 0.284217 128.162 0.41761 133.563 1.68484C136.269 2.25176 138.908 3.11882 141.434 4.18596C143.972 5.27534 146.42 6.54257 148.553 8.24334Z" fill="#FEBA66"/>
<path d="M0.257324 40.8701C3.21039 42.0928 6.21958 43.0377 9.28493 43.7602C12.3278 44.5161 15.4269 45.0497 18.5259 45.3832C20.0754 45.5944 21.6362 45.6166 23.1744 45.7611C24.7352 45.7723 26.2847 45.8945 27.8342 45.8056L30.1585 45.75C30.9332 45.7389 31.708 45.6389 32.4828 45.5944C33.2575 45.5277 34.0323 45.4944 34.7958 45.3943L37.0976 45.0719C40.1854 44.7385 43.1834 44.027 46.1701 43.1711C49.1906 42.3485 52.0426 41.2591 55.063 40.1253C58.1508 39.0026 61.4969 38.2689 64.8878 38.6246C66.5609 38.8358 68.2451 39.3694 69.615 40.3476C70.9961 41.3147 71.9842 42.6931 72.613 44.1382C71.6698 42.8487 70.4908 41.7927 69.1322 41.1368C67.7735 40.481 66.2802 40.2142 64.798 40.2587C61.8 40.3031 58.847 41.2925 56.0736 42.5375C53.2552 43.9159 50.2011 45.1609 47.1245 46.1947C44.0255 47.184 40.8254 47.9732 37.5804 48.3734C31.1241 49.2182 24.5106 49.2294 18.1329 47.951C14.9328 47.373 11.8113 46.4726 8.79088 45.3276C5.7929 44.1382 2.86231 42.7487 0.257324 40.8701Z" fill="#FEBA66"/>
<path d="M3.47732 30.5342L1.25732 28.3142V18.0142L3.47732 15.7942H11.0573L13.2973 18.0142V20.9942H9.65732V19.3342L8.93732 18.6342H5.71732L4.99732 19.3342V26.9942L5.71732 27.6942H9.05732L9.79732 26.9942V25.3142H13.4173V28.3142L11.1973 30.5342H3.47732ZM16.9758 30.5542L14.7558 28.3342V20.0942H18.4958V27.7342L19.1958 28.4342H20.0158L22.0358 26.7142V20.0942H25.7758V30.5342H22.0358V29.1342L20.2958 30.5542H16.9758ZM28.3737 30.5342V20.0742H32.1137V21.7142L33.8937 20.0942H35.9337V23.4342H32.9337L32.1137 24.1742V30.5342H28.3737ZM37.4362 30.5342V20.0742H41.1762V21.7142L42.9562 20.0942H44.9962V23.4342H41.9962L41.1762 24.1742V30.5342H37.4362ZM48.2039 30.5342L45.9839 28.3142V22.3142L48.2039 20.0942H54.0839L56.3039 22.3142V26.2742H49.7239V27.1942L50.4439 27.8942H56.1439V30.5342H48.2039ZM49.7239 24.1142H52.9039V22.8742L52.1839 22.1742H50.4439L49.7239 22.8742V24.1142ZM58.7058 30.5342V20.0742H62.4458V21.5142L64.2058 20.0742H67.8058L70.0258 22.3142V30.5342H66.2858V22.8342L65.6058 22.1942H64.5258L62.4458 23.9542V30.5342H58.7058ZM74.3367 30.5342L72.1167 28.3142V22.3142L74.3367 20.0942H80.4167L82.5167 22.0142V24.0542H78.7767V22.8742L78.0767 22.1742H76.5567L75.8567 22.8742V27.1942L76.5567 27.8942H82.2967V30.5342H74.3367ZM84.9317 34.2742V31.7342H90.8517L91.5517 31.0342V28.9742L89.6317 30.5342H86.3117L84.0917 28.3142V20.0942H87.8317V27.7142L88.5317 28.4142H89.3517L91.5517 26.5342V20.0942H95.0717V32.0142L92.8317 34.2742H84.9317ZM104.178 30.5342L101.058 15.7942H105.358L106.938 27.7142H107.638L109.238 15.7942H113.078L114.678 27.7142H115.378L116.958 15.7942H121.258L118.138 30.5342H112.198L111.158 23.7342L110.118 30.5342H104.178ZM123.409 30.5342L121.189 28.3142V26.0942L123.409 23.8742H128.389V23.1742L127.669 22.4542H122.429V20.0942H129.889L132.129 22.3142V30.5342H128.389V29.1142L127.009 30.5342H123.409ZM125.609 28.4942H126.689L128.389 26.7942V25.7342H125.609L124.909 26.4342V27.7942L125.609 28.4942ZM136.867 30.5342L133.167 20.0942H137.467L139.147 27.7142H139.867L141.547 20.0942H145.847L142.147 30.5342H136.867ZM148.946 30.5342L146.726 28.3142V22.3142L148.946 20.0942H154.826L157.046 22.3142V26.2742H150.466V27.1942L151.186 27.8942H156.886V30.5342H148.946ZM150.466 24.1142H153.646V22.8742L152.926 22.1742H151.186L150.466 22.8742V24.1142Z" fill="white"/>
</svg>
