<svg width="127" height="49" viewBox="0 0 127 49" fill="none" xmlns="http://www.w3.org/2000/svg">
<path d="M6.81856 4.51382C6.98656 4.82182 7.17789 5.20449 7.39256 5.66182C7.61656 6.10982 7.84523 6.59982 8.07856 7.13182C8.32123 7.65449 8.55923 8.19115 8.79256 8.74182C9.02589 9.29249 9.24523 9.81049 9.45056 10.2958C9.65589 9.81049 9.87523 9.29249 10.1086 8.74182C10.3419 8.19115 10.5752 7.65449 10.8086 7.13182C11.0512 6.59982 11.2799 6.10982 11.4946 5.66182C11.7186 5.20449 11.9146 4.82182 12.0826 4.51382H14.0706C14.1639 5.15782 14.2479 5.88115 14.3226 6.68382C14.4066 7.47715 14.4766 8.30782 14.5326 9.17582C14.5979 10.0345 14.6539 10.8978 14.7006 11.7658C14.7566 12.6338 14.8032 13.4505 14.8406 14.2158H12.7126C12.6846 13.2732 12.6472 12.2465 12.6006 11.1358C12.5539 10.0252 12.4839 8.90515 12.3906 7.77582C12.2226 8.16782 12.0359 8.60182 11.8306 9.07782C11.6252 9.55382 11.4199 10.0298 11.2146 10.5058C11.0186 10.9818 10.8272 11.4392 10.6406 11.8778C10.4539 12.3072 10.2952 12.6758 10.1646 12.9838H8.63856C8.50789 12.6758 8.34923 12.3072 8.16256 11.8778C7.97589 11.4392 7.77989 10.9818 7.57456 10.5058C7.37856 10.0298 7.17789 9.55382 6.97256 9.07782C6.76723 8.60182 6.58056 8.16782 6.41256 7.77582C6.31923 8.90515 6.24923 10.0252 6.20256 11.1358C6.15589 12.2465 6.11856 13.2732 6.09056 14.2158H3.96256C3.99989 13.4505 4.04189 12.6338 4.08856 11.7658C4.14456 10.8978 4.20056 10.0345 4.25656 9.17582C4.32189 8.30782 4.39189 7.47715 4.46656 6.68382C4.55056 5.88115 4.63923 5.15782 4.73256 4.51382H6.81856ZM23.555 10.5198C23.555 11.0985 23.471 11.6305 23.303 12.1158C23.135 12.5918 22.8923 13.0025 22.575 13.3478C22.2577 13.6838 21.875 13.9452 21.427 14.1318C20.9883 14.3185 20.4937 14.4118 19.943 14.4118C19.4017 14.4118 18.907 14.3185 18.459 14.1318C18.0203 13.9452 17.6423 13.6838 17.325 13.3478C17.0077 13.0025 16.7603 12.5918 16.583 12.1158C16.4057 11.6305 16.317 11.0985 16.317 10.5198C16.317 9.94115 16.4057 9.41382 16.583 8.93782C16.7697 8.46182 17.0217 8.05582 17.339 7.71982C17.6657 7.38382 18.0483 7.12249 18.487 6.93582C18.935 6.74915 19.4203 6.65582 19.943 6.65582C20.475 6.65582 20.9603 6.74915 21.399 6.93582C21.847 7.12249 22.2297 7.38382 22.547 7.71982C22.8643 8.05582 23.1117 8.46182 23.289 8.93782C23.4663 9.41382 23.555 9.94115 23.555 10.5198ZM21.427 10.5198C21.427 9.87582 21.2963 9.37182 21.035 9.00782C20.783 8.63449 20.419 8.44782 19.943 8.44782C19.467 8.44782 19.0983 8.63449 18.837 9.00782C18.5757 9.37182 18.445 9.87582 18.445 10.5198C18.445 11.1638 18.5757 11.6772 18.837 12.0598C19.0983 12.4332 19.467 12.6198 19.943 12.6198C20.419 12.6198 20.783 12.4332 21.035 12.0598C21.2963 11.6772 21.427 11.1638 21.427 10.5198ZM26.9489 10.4778C26.9489 11.1218 27.0936 11.6398 27.3829 12.0318C27.6723 12.4238 28.1016 12.6198 28.6709 12.6198C28.8576 12.6198 29.0303 12.6152 29.1889 12.6058C29.3476 12.5872 29.4783 12.5685 29.5809 12.5498V8.75582C29.4503 8.67182 29.2776 8.60182 29.0629 8.54582C28.8576 8.48982 28.6476 8.46182 28.4329 8.46182C27.4436 8.46182 26.9489 9.13382 26.9489 10.4778ZM31.6669 13.9778C31.4803 14.0338 31.2656 14.0898 31.0229 14.1458C30.7803 14.1925 30.5236 14.2345 30.2529 14.2718C29.9916 14.3092 29.7209 14.3372 29.4409 14.3558C29.1703 14.3838 28.9089 14.3978 28.6569 14.3978C28.0503 14.3978 27.5089 14.3092 27.0329 14.1318C26.5569 13.9545 26.1556 13.7025 25.8289 13.3758C25.5023 13.0398 25.2503 12.6385 25.0729 12.1718C24.9049 11.6958 24.8209 11.1638 24.8209 10.5758C24.8209 9.97849 24.8956 9.44182 25.0449 8.96582C25.1943 8.48049 25.4089 8.06982 25.6889 7.73382C25.9689 7.39782 26.3096 7.14115 26.7109 6.96382C27.1216 6.78649 27.5883 6.69782 28.1109 6.69782C28.4003 6.69782 28.6569 6.72582 28.8809 6.78182C29.1143 6.83782 29.3476 6.91715 29.5809 7.01982V3.68782L31.6669 3.35182V13.9778ZM33.2701 10.5898C33.2701 9.93649 33.3681 9.36715 33.5641 8.88182C33.7695 8.38715 34.0355 7.97649 34.3621 7.64982C34.6888 7.32315 35.0621 7.07582 35.4821 6.90782C35.9115 6.73982 36.3501 6.65582 36.7981 6.65582C37.8435 6.65582 38.6695 6.97782 39.2761 7.62182C39.8828 8.25649 40.1861 9.19449 40.1861 10.4358C40.1861 10.5572 40.1815 10.6925 40.1721 10.8418C40.1628 10.9818 40.1535 11.1078 40.1441 11.2198H35.4121C35.4588 11.6492 35.6595 11.9898 36.0141 12.2418C36.3688 12.4938 36.8448 12.6198 37.4421 12.6198C37.8248 12.6198 38.1981 12.5872 38.5621 12.5218C38.9355 12.4472 39.2388 12.3585 39.4721 12.2558L39.7521 13.9498C39.6401 14.0058 39.4908 14.0618 39.3041 14.1178C39.1175 14.1738 38.9075 14.2205 38.6741 14.2578C38.4501 14.3045 38.2075 14.3418 37.9461 14.3698C37.6848 14.3978 37.4235 14.4118 37.1621 14.4118C36.4995 14.4118 35.9208 14.3138 35.4261 14.1178C34.9408 13.9218 34.5348 13.6558 34.2081 13.3198C33.8908 12.9745 33.6528 12.5685 33.4941 12.1018C33.3448 11.6352 33.2701 11.1312 33.2701 10.5898ZM38.1701 9.79182C38.1608 9.61449 38.1281 9.44182 38.0721 9.27382C38.0255 9.10582 37.9461 8.95649 37.8341 8.82582C37.7315 8.69515 37.5961 8.58782 37.4281 8.50382C37.2695 8.41982 37.0688 8.37782 36.8261 8.37782C36.5928 8.37782 36.3921 8.41982 36.2241 8.50382C36.0561 8.57849 35.9161 8.68115 35.8041 8.81182C35.6921 8.94249 35.6035 9.09649 35.5381 9.27382C35.4821 9.44182 35.4401 9.61449 35.4121 9.79182H38.1701ZM46.2339 8.69982C46.0473 8.65315 45.8279 8.60649 45.5759 8.55982C45.3239 8.50382 45.0533 8.47582 44.7639 8.47582C44.6333 8.47582 44.4746 8.48982 44.2879 8.51782C44.1106 8.53649 43.9753 8.55982 43.8819 8.58782V14.2158H41.7959V7.24382C42.1693 7.11315 42.6079 6.99182 43.1119 6.87982C43.6253 6.75849 44.1946 6.69782 44.8199 6.69782C44.9319 6.69782 45.0673 6.70715 45.2259 6.72582C45.3846 6.73515 45.5433 6.75382 45.7019 6.78182C45.8606 6.80049 46.0193 6.82849 46.1779 6.86582C46.3366 6.89382 46.4719 6.93115 46.5839 6.97782L46.2339 8.69982ZM47.7022 7.10382C48.0568 7.00115 48.5142 6.90782 49.0742 6.82382C49.6342 6.73049 50.2222 6.68382 50.8382 6.68382C51.4635 6.68382 51.9815 6.76782 52.3922 6.93582C52.8122 7.09449 53.1435 7.32315 53.3862 7.62182C53.6288 7.92049 53.8015 8.27515 53.9042 8.68582C54.0068 9.09649 54.0582 9.55382 54.0582 10.0578V14.2158H51.9722V10.3098C51.9722 9.63782 51.8835 9.16182 51.7062 8.88182C51.5288 8.60182 51.1975 8.46182 50.7122 8.46182C50.5628 8.46182 50.4042 8.47115 50.2362 8.48982C50.0682 8.49915 49.9188 8.51315 49.7882 8.53182V14.2158H47.7022V7.10382Z" fill="white"/>
<path d="M12.0026 40.6358C8.62256 40.6358 6.04256 39.6958 4.26256 37.8158C2.50256 35.9358 1.62256 33.2658 1.62256 29.8058C1.62256 28.0858 1.89256 26.5558 2.43256 25.2158C2.97256 23.8558 3.71256 22.7158 4.65256 21.7958C5.59256 20.8558 6.71256 20.1458 8.01256 19.6658C9.31256 19.1858 10.7226 18.9458 12.2426 18.9458C13.1226 18.9458 13.9226 19.0158 14.6426 19.1558C15.3626 19.2758 15.9926 19.4258 16.5326 19.6058C17.0726 19.7658 17.5226 19.9358 17.8826 20.1158C18.2426 20.2958 18.5026 20.4358 18.6626 20.5358L17.3126 24.3158C16.6726 23.9758 15.9226 23.6858 15.0626 23.4458C14.2226 23.2058 13.2626 23.0858 12.1826 23.0858C11.4626 23.0858 10.7526 23.2058 10.0526 23.4458C9.37256 23.6858 8.76256 24.0758 8.22256 24.6158C7.70256 25.1358 7.28256 25.8158 6.96256 26.6558C6.64256 27.4958 6.48256 28.5158 6.48256 29.7158C6.48256 30.6758 6.58256 31.5758 6.78256 32.4158C7.00256 33.2358 7.34256 33.9458 7.80256 34.5458C8.28256 35.1458 8.90256 35.6258 9.66256 35.9858C10.4226 36.3258 11.3426 36.4958 12.4226 36.4958C13.1026 36.4958 13.7126 36.4558 14.2526 36.3758C14.7926 36.2958 15.2726 36.2058 15.6926 36.1058C16.1126 35.9858 16.4826 35.8558 16.8026 35.7158C17.1226 35.5758 17.4126 35.4458 17.6726 35.3258L18.9626 39.0758C18.3026 39.4758 17.3726 39.8358 16.1726 40.1558C14.9726 40.4758 13.5826 40.6358 12.0026 40.6358ZM31.1857 28.3958C30.7857 28.2958 30.3157 28.1958 29.7757 28.0958C29.2357 27.9758 28.6557 27.9158 28.0357 27.9158C27.7557 27.9158 27.4157 27.9458 27.0157 28.0058C26.6357 28.0458 26.3457 28.0958 26.1457 28.1558V40.2158H21.6757V25.2758C22.4757 24.9958 23.4157 24.7358 24.4957 24.4958C25.5957 24.2358 26.8157 24.1058 28.1557 24.1058C28.3957 24.1058 28.6857 24.1258 29.0257 24.1658C29.3657 24.1858 29.7057 24.2258 30.0457 24.2858C30.3857 24.3258 30.7257 24.3858 31.0657 24.4658C31.4057 24.5258 31.6957 24.6058 31.9357 24.7058L31.1857 28.3958ZM49.2794 24.4358C48.3794 27.4758 47.4394 30.3258 46.4594 32.9858C45.4794 35.6458 44.4094 38.2258 43.2494 40.7258C42.8294 41.6258 42.4094 42.3858 41.9894 43.0058C41.5694 43.6458 41.1094 44.1658 40.6094 44.5658C40.1094 44.9858 39.5394 45.2858 38.8994 45.4658C38.2794 45.6658 37.5494 45.7658 36.7094 45.7658C36.0094 45.7658 35.3594 45.6958 34.7594 45.5558C34.1794 45.4358 33.6994 45.2958 33.3194 45.1358L34.0994 41.5658C34.5594 41.7258 34.9694 41.8358 35.3294 41.8958C35.6894 41.9558 36.0694 41.9858 36.4694 41.9858C37.2694 41.9858 37.8794 41.7658 38.2994 41.3258C38.7394 40.9058 39.1094 40.3158 39.4094 39.5558C38.3894 37.5558 37.3694 35.3158 36.3494 32.8358C35.3294 30.3358 34.3694 27.5358 33.4694 24.4358H38.2094C38.4094 25.2158 38.6394 26.0658 38.8994 26.9858C39.1794 27.8858 39.4694 28.8058 39.7694 29.7458C40.0694 30.6658 40.3694 31.5658 40.6694 32.4458C40.9894 33.3258 41.2894 34.1258 41.5694 34.8458C41.8294 34.1258 42.0994 33.3258 42.3794 32.4458C42.6594 31.5658 42.9294 30.6658 43.1894 29.7458C43.4694 28.8058 43.7294 27.8858 43.9694 26.9858C44.2294 26.0658 44.4594 25.2158 44.6594 24.4358H49.2794ZM61.7857 32.4458C61.7857 31.0658 61.4757 29.9658 60.8557 29.1458C60.2357 28.3058 59.3157 27.8858 58.0957 27.8858C57.6957 27.8858 57.3257 27.9058 56.9857 27.9458C56.6457 27.9658 56.3657 27.9958 56.1457 28.0358V36.1058C56.4257 36.2858 56.7857 36.4358 57.2257 36.5558C57.6857 36.6758 58.1457 36.7358 58.6057 36.7358C60.7257 36.7358 61.7857 35.3058 61.7857 32.4458ZM66.3457 32.3258C66.3457 33.5458 66.1957 34.6558 65.8957 35.6558C65.5957 36.6558 65.1557 37.5158 64.5757 38.2358C63.9957 38.9558 63.2757 39.5158 62.4157 39.9158C61.5557 40.3158 60.5657 40.5158 59.4457 40.5158C58.8257 40.5158 58.2457 40.4558 57.7057 40.3358C57.1657 40.2158 56.6457 40.0458 56.1457 39.8258V45.7658H51.6757V24.9758C52.0757 24.8558 52.5357 24.7458 53.0557 24.6458C53.5757 24.5258 54.1157 24.4258 54.6757 24.3458C55.2557 24.2658 55.8357 24.2058 56.4157 24.1658C57.0157 24.1058 57.5857 24.0758 58.1257 24.0758C59.4257 24.0758 60.5857 24.2758 61.6057 24.6758C62.6257 25.0558 63.4857 25.6058 64.1857 26.3258C64.8857 27.0258 65.4157 27.8858 65.7757 28.9058C66.1557 29.9258 66.3457 31.0658 66.3457 32.3258ZM69.6312 20.5058L74.1012 19.7858V24.4358H79.4712V28.1558H74.1012V33.7058C74.1012 34.6458 74.2612 35.3958 74.5812 35.9558C74.9212 36.5158 75.5912 36.7958 76.5912 36.7958C77.0712 36.7958 77.5612 36.7558 78.0612 36.6758C78.5812 36.5758 79.0512 36.4458 79.4712 36.2858L80.1012 39.7658C79.5612 39.9858 78.9612 40.1758 78.3012 40.3358C77.6412 40.4958 76.8312 40.5758 75.8712 40.5758C74.6512 40.5758 73.6412 40.4158 72.8412 40.0958C72.0412 39.7558 71.4012 39.2958 70.9212 38.7158C70.4412 38.1158 70.1012 37.3958 69.9012 36.5558C69.7212 35.7158 69.6312 34.7858 69.6312 33.7658V20.5058ZM97.2853 32.2958C97.2853 33.5358 97.1053 34.6758 96.7453 35.7158C96.3853 36.7358 95.8653 37.6158 95.1853 38.3558C94.5053 39.0758 93.6853 39.6358 92.7253 40.0358C91.7853 40.4358 90.7253 40.6358 89.5453 40.6358C88.3853 40.6358 87.3253 40.4358 86.3653 40.0358C85.4253 39.6358 84.6153 39.0758 83.9353 38.3558C83.2553 37.6158 82.7253 36.7358 82.3453 35.7158C81.9653 34.6758 81.7753 33.5358 81.7753 32.2958C81.7753 31.0558 81.9653 29.9258 82.3453 28.9058C82.7453 27.8858 83.2853 27.0158 83.9653 26.2958C84.6653 25.5758 85.4853 25.0158 86.4253 24.6158C87.3853 24.2158 88.4253 24.0158 89.5453 24.0158C90.6853 24.0158 91.7253 24.2158 92.6653 24.6158C93.6253 25.0158 94.4453 25.5758 95.1253 26.2958C95.8053 27.0158 96.3353 27.8858 96.7153 28.9058C97.0953 29.9258 97.2853 31.0558 97.2853 32.2958ZM92.7253 32.2958C92.7253 30.9158 92.4453 29.8358 91.8853 29.0558C91.3453 28.2558 90.5653 27.8558 89.5453 27.8558C88.5253 27.8558 87.7353 28.2558 87.1753 29.0558C86.6153 29.8358 86.3353 30.9158 86.3353 32.2958C86.3353 33.6758 86.6153 34.7758 87.1753 35.5958C87.7353 36.3958 88.5253 36.7958 89.5453 36.7958C90.5653 36.7958 91.3453 36.3958 91.8853 35.5958C92.4453 34.7758 92.7253 33.6758 92.7253 32.2958Z" fill="white"/>
<path d="M114.123 43.2158V30.2723L104.123 21.2158V43.2158H114.123Z" fill="#27CAEA"/>
<path d="M126.074 42.902V30.1431L116.417 21.2158V42.902H126.074Z" fill="#FFB04E"/>
</svg>
