<svg width="114" height="36" viewBox="0 0 114 36" fill="none" xmlns="http://www.w3.org/2000/svg">
<path d="M48.4566 10.5998C48.3846 11.5178 48.3306 12.3998 48.2946 13.2458C48.2766 14.0918 48.2676 14.7398 48.2676 15.1898C48.2676 15.5858 48.2766 15.9638 48.2946 16.3238C48.3126 16.6838 48.3306 16.9898 48.3486 17.2418H47.7276C47.4396 15.7298 47.0706 14.5328 46.6206 13.6508C46.1886 12.7688 45.6666 12.1478 45.0546 11.7878C44.4426 11.4098 43.7226 11.2208 42.8946 11.2208H42.2736V26.6378C42.2736 27.3578 42.3456 27.8978 42.4896 28.2578C42.6516 28.6178 42.9396 28.8608 43.3536 28.9868C43.7676 29.0948 44.3706 29.1578 45.1626 29.1758V29.7158C44.6046 29.6978 43.8576 29.6798 42.9216 29.6618C42.0036 29.6438 41.0406 29.6348 40.0326 29.6348C39.0426 29.6348 38.1066 29.6438 37.2246 29.6618C36.3426 29.6798 35.6316 29.6978 35.0916 29.7158V29.1758C35.9016 29.1578 36.5136 29.0948 36.9276 28.9868C37.3416 28.8608 37.6206 28.6178 37.7646 28.2578C37.9086 27.8978 37.9806 27.3578 37.9806 26.6378V11.2208H37.3866C36.5586 11.2208 35.8386 11.4098 35.2266 11.7878C34.6146 12.1478 34.0926 12.7688 33.6606 13.6508C33.2286 14.5148 32.8506 15.7118 32.5266 17.2418H31.9056C31.9416 16.9898 31.9596 16.6838 31.9596 16.3238C31.9776 15.9638 31.9866 15.5858 31.9866 15.1898C31.9866 14.7398 31.9686 14.0918 31.9326 13.2458C31.9146 12.3998 31.8696 11.5178 31.7976 10.5998C32.6256 10.6178 33.5256 10.6358 34.4976 10.6538C35.4876 10.6718 36.4776 10.6808 37.4676 10.6808C38.4576 10.6808 39.3486 10.6808 40.1406 10.6808C40.9506 10.6808 41.8416 10.6808 42.8136 10.6808C43.8036 10.6808 44.7936 10.6718 45.7836 10.6538C46.7736 10.6358 47.6646 10.6178 48.4566 10.5998ZM52.8462 29.9048C52.0362 29.9048 51.3612 29.7518 50.8212 29.4458C50.2812 29.1398 49.8852 28.7348 49.6332 28.2308C49.3812 27.7088 49.2552 27.1418 49.2552 26.5298C49.2552 25.7558 49.4262 25.1258 49.7682 24.6398C50.1282 24.1538 50.5872 23.7578 51.1452 23.4518C51.7032 23.1458 52.2882 22.8938 52.9002 22.6958C53.5302 22.4978 54.1242 22.3088 54.6822 22.1288C55.2582 21.9308 55.7172 21.7058 56.0592 21.4538C56.4192 21.1838 56.5992 20.8418 56.5992 20.4278V18.3218C56.5992 17.8538 56.5182 17.4398 56.3562 17.0798C56.2122 16.7018 55.9782 16.4138 55.6542 16.2158C55.3482 16.0178 54.9432 15.9188 54.4392 15.9188C54.0792 15.9188 53.7192 15.9728 53.3592 16.0808C52.9992 16.1708 52.7022 16.3328 52.4682 16.5668C52.9722 16.7468 53.3592 17.0258 53.6292 17.4038C53.9172 17.7638 54.0612 18.1778 54.0612 18.6458C54.0612 19.2578 53.8452 19.7438 53.4132 20.1038C52.9992 20.4638 52.5042 20.6438 51.9282 20.6438C51.2802 20.6438 50.7852 20.4458 50.4432 20.0498C50.1192 19.6358 49.9572 19.1408 49.9572 18.5648C49.9572 18.0428 50.0832 17.6108 50.3352 17.2688C50.6052 16.9268 50.9742 16.6028 51.4422 16.2968C51.9462 16.0088 52.5492 15.7838 53.2512 15.6218C53.9712 15.4598 54.7452 15.3788 55.5732 15.3788C56.4012 15.3788 57.1482 15.4688 57.8142 15.6488C58.4802 15.8108 59.0382 16.1168 59.4882 16.5668C59.9022 16.9808 60.1722 17.4938 60.2982 18.1058C60.4242 18.6998 60.4872 19.4558 60.4872 20.3738V27.7178C60.4872 28.1678 60.5322 28.4828 60.6222 28.6628C60.7122 28.8248 60.8652 28.9058 61.0812 28.9058C61.2432 28.9058 61.3962 28.8608 61.5402 28.7708C61.7022 28.6808 61.8732 28.5728 62.0532 28.4468L62.3232 28.9058C61.9452 29.2298 61.5042 29.4818 61.0002 29.6618C60.5142 29.8238 59.9652 29.9048 59.3532 29.9048C58.6872 29.9048 58.1562 29.8148 57.7602 29.6348C57.3642 29.4368 57.0762 29.1758 56.8962 28.8518C56.7342 28.5278 56.6532 28.1498 56.6532 27.7178C56.2212 28.4018 55.6992 28.9418 55.0872 29.3378C54.4752 29.7158 53.7282 29.9048 52.8462 29.9048ZM54.7632 28.1768C55.1232 28.1768 55.4472 28.0958 55.7352 27.9338C56.0412 27.7538 56.3292 27.4658 56.5992 27.0698V21.5348C56.4372 21.8048 56.2122 22.0478 55.9242 22.2638C55.6362 22.4798 55.3302 22.7048 55.0062 22.9388C54.6822 23.1548 54.3672 23.3978 54.0612 23.6678C53.7732 23.9378 53.5392 24.2708 53.3592 24.6668C53.1792 25.0628 53.0892 25.5398 53.0892 26.0978C53.0892 26.7998 53.2422 27.3218 53.5482 27.6638C53.8542 28.0058 54.2592 28.1768 54.7632 28.1768ZM72.3828 15.3788C72.9588 15.3788 73.4268 15.5048 73.7868 15.7568C74.1468 15.9908 74.4078 16.2968 74.5698 16.6748C74.7498 17.0528 74.8398 17.4488 74.8398 17.8628C74.8398 18.5288 74.6418 19.0778 74.2458 19.5098C73.8678 19.9238 73.3638 20.1308 72.7338 20.1308C72.1038 20.1308 71.6088 19.9778 71.2488 19.6718C70.9068 19.3478 70.7358 18.9248 70.7358 18.4028C70.7358 17.8988 70.8438 17.4848 71.0598 17.1608C71.2938 16.8188 71.5818 16.5308 71.9238 16.2968C71.6718 16.2248 71.4198 16.2338 71.1678 16.3238C70.8258 16.3778 70.5018 16.5218 70.1958 16.7558C69.8898 16.9718 69.6288 17.2508 69.4128 17.5928C69.1968 17.9168 69.0258 18.2768 68.8998 18.6728C68.7738 19.0508 68.7108 19.4198 68.7108 19.7798V26.9348C68.7108 27.7988 68.9178 28.3838 69.3318 28.6898C69.7638 28.9958 70.4028 29.1488 71.2488 29.1488V29.7158C70.8348 29.6978 70.2318 29.6798 69.4398 29.6618C68.6478 29.6258 67.8198 29.6078 66.9558 29.6078C66.2358 29.6078 65.5068 29.6258 64.7688 29.6618C64.0308 29.6798 63.4728 29.6978 63.0948 29.7158V29.1488C63.7248 29.1488 64.1658 29.0138 64.4178 28.7438C64.6878 28.4738 64.8228 27.9608 64.8228 27.2048V18.6998C64.8228 17.8898 64.6968 17.2958 64.4448 16.9178C64.2108 16.5218 63.7608 16.3238 63.0948 16.3238V15.7568C63.6708 15.8108 64.2288 15.8378 64.7688 15.8378C65.5248 15.8378 66.2268 15.8108 66.8748 15.7568C67.5408 15.6848 68.1528 15.5858 68.7108 15.4598V17.9708C68.9268 17.4848 69.2148 17.0438 69.5748 16.6478C69.9348 16.2518 70.3488 15.9458 70.8168 15.7298C71.2848 15.4958 71.8068 15.3788 72.3828 15.3788ZM80.9363 34.7918C79.8203 34.7918 78.8213 34.6928 77.9393 34.4948C77.0753 34.3148 76.3913 34.0268 75.8873 33.6308C75.4013 33.2528 75.1583 32.7848 75.1583 32.2268C75.1583 31.6688 75.4103 31.1648 75.9143 30.7148C76.4183 30.2828 77.1653 29.9408 78.1553 29.6888L78.3983 30.1208C78.0563 30.3908 77.8043 30.6788 77.6423 30.9848C77.4983 31.3088 77.4263 31.6418 77.4263 31.9838C77.4263 32.7398 77.7683 33.3158 78.4523 33.7118C79.1543 34.1258 80.0993 34.3328 81.2873 34.3328C82.0973 34.3328 82.8173 34.2248 83.4473 34.0088C84.0953 33.7928 84.5993 33.4688 84.9593 33.0368C85.3373 32.6048 85.5263 32.0738 85.5263 31.4438C85.5263 30.9038 85.3283 30.4448 84.9323 30.0668C84.5363 29.7068 83.7443 29.5268 82.5563 29.5268H80.8823C80.1443 29.5268 79.4963 29.4458 78.9383 29.2838C78.3983 29.1218 77.9753 28.8698 77.6693 28.5278C77.3633 28.1678 77.2103 27.7178 77.2103 27.1778C77.2103 26.4218 77.5073 25.7558 78.1013 25.1798C78.6953 24.6038 79.5773 24.0638 80.7473 23.5598L81.0173 23.7758C80.6753 23.9918 80.3513 24.2258 80.0453 24.4778C79.7573 24.7118 79.6133 25.0178 79.6133 25.3958C79.6133 25.9718 79.9733 26.2598 80.6933 26.2598H83.6363C84.6263 26.2598 85.5083 26.3768 86.2823 26.6108C87.0743 26.8448 87.6953 27.2318 88.1453 27.7718C88.6133 28.2938 88.8473 28.9778 88.8473 29.8238C88.8473 30.7058 88.5593 31.5248 87.9833 32.2808C87.4253 33.0368 86.5613 33.6398 85.3913 34.0898C84.2213 34.5578 82.7363 34.7918 80.9363 34.7918ZM81.2063 23.9648C80.1803 23.9648 79.2623 23.8118 78.4523 23.5058C77.6423 23.1998 77.0033 22.7318 76.5353 22.1018C76.0673 21.4718 75.8333 20.6618 75.8333 19.6718C75.8333 18.6818 76.0673 17.8718 76.5353 17.2418C77.0033 16.5938 77.6423 16.1258 78.4523 15.8378C79.2623 15.5318 80.1803 15.3788 81.2063 15.3788C82.2323 15.3788 83.1503 15.5318 83.9603 15.8378C84.7703 16.1258 85.4093 16.5938 85.8773 17.2418C86.3453 17.8718 86.5793 18.6818 86.5793 19.6718C86.5793 20.6618 86.3453 21.4718 85.8773 22.1018C85.4093 22.7318 84.7703 23.1998 83.9603 23.5058C83.1503 23.8118 82.2323 23.9648 81.2063 23.9648ZM81.2063 23.4788C81.6923 23.4788 82.0703 23.2088 82.3403 22.6688C82.6103 22.1108 82.7453 21.1118 82.7453 19.6718C82.7453 18.2318 82.6103 17.2418 82.3403 16.7018C82.0703 16.1438 81.6923 15.8648 81.2063 15.8648C80.7383 15.8648 80.3603 16.1438 80.0723 16.7018C79.8023 17.2418 79.6673 18.2318 79.6673 19.6718C79.6673 21.1118 79.8023 22.1108 80.0723 22.6688C80.3603 23.2088 80.7383 23.4788 81.2063 23.4788ZM85.4183 17.7008L84.8783 17.5118C85.1483 16.8098 85.5803 16.2248 86.1743 15.7568C86.7863 15.2888 87.4433 15.0548 88.1453 15.0548C88.7213 15.0548 89.1533 15.2168 89.4413 15.5408C89.7473 15.8468 89.9003 16.2518 89.9003 16.7558C89.9003 17.2958 89.7563 17.7008 89.4683 17.9708C89.1803 18.2228 88.8563 18.3488 88.4963 18.3488C88.1903 18.3488 87.9023 18.2408 87.6323 18.0248C87.3803 17.8088 87.2363 17.4848 87.2003 17.0528C87.1643 16.6028 87.3173 16.0268 87.6593 15.3248L87.8483 15.4868C87.1643 15.7388 86.6513 16.0358 86.3093 16.3778C85.9673 16.7018 85.6703 17.1428 85.4183 17.7008ZM97.1662 15.3788C98.7502 15.3788 99.9922 15.8468 100.892 16.7828C101.792 17.7188 102.242 19.2488 102.242 21.3728H93.3592L93.3052 20.8598H98.8402C98.8582 19.9778 98.8042 19.1678 98.6782 18.4298C98.5522 17.6738 98.3542 17.0708 98.0842 16.6208C97.8142 16.1708 97.4542 15.9458 97.0042 15.9458C96.3742 15.9458 95.8342 16.3418 95.3842 17.1338C94.9522 17.9258 94.6912 19.2398 94.6012 21.0758L94.6822 21.2378C94.6642 21.4538 94.6462 21.6788 94.6282 21.9128C94.6282 22.1468 94.6282 22.3898 94.6282 22.6418C94.6282 23.8838 94.7992 24.8918 95.1412 25.6658C95.5012 26.4398 95.9512 27.0068 96.4912 27.3668C97.0312 27.7088 97.5802 27.8798 98.1382 27.8798C98.5162 27.8798 98.9032 27.8258 99.2992 27.7178C99.7132 27.5918 100.127 27.3758 100.541 27.0698C100.955 26.7458 101.342 26.2958 101.702 25.7198L102.188 25.8818C101.972 26.5658 101.63 27.2318 101.162 27.8798C100.694 28.5278 100.1 29.0588 99.3802 29.4728C98.6602 29.8868 97.7962 30.0938 96.7882 30.0938C95.5642 30.0938 94.4842 29.8328 93.5482 29.3108C92.6122 28.7888 91.8742 27.9968 91.3342 26.9348C90.8122 25.8728 90.5512 24.5228 90.5512 22.8848C90.5512 21.2108 90.8302 19.8158 91.3882 18.6998C91.9642 17.5838 92.7472 16.7558 93.7372 16.2158C94.7452 15.6578 95.8882 15.3788 97.1662 15.3788ZM109.287 11.3288V15.7568H112.473V16.2968H109.287V27.2048C109.287 27.7448 109.386 28.1318 109.584 28.3658C109.782 28.5818 110.079 28.6898 110.475 28.6898C110.799 28.6898 111.123 28.5728 111.447 28.3388C111.771 28.0868 112.059 27.6638 112.311 27.0698L112.77 27.3128C112.482 28.1228 112.041 28.7888 111.447 29.3108C110.871 29.8328 110.079 30.0938 109.071 30.0938C108.477 30.0938 107.955 30.0128 107.505 29.8508C107.055 29.7068 106.677 29.4818 106.371 29.1758C105.975 28.7798 105.714 28.2938 105.588 27.7178C105.462 27.1238 105.399 26.3588 105.399 25.4228V16.2968H103.131V15.7568H105.399V12.1928C106.155 12.1928 106.848 12.1298 107.478 12.0038C108.126 11.8598 108.729 11.6348 109.287 11.3288Z" fill="white"/>
<rect x="0.122559" y="5.71582" width="26" height="26" rx="5" fill="#FFB6D3"/>
<circle cx="13.1226" cy="18.7158" r="5" fill="#FF5196"/>
<path d="M13.1226 13.1158V11.7158M13.1226 25.7158V24.3158M18.7226 18.7158H20.1226M6.12256 18.7158H7.52256M13.1226 13.6758C12.1257 13.6758 11.1513 13.9714 10.3225 14.5252C9.49366 15.079 8.84767 15.8662 8.46621 16.7871C8.08474 17.708 7.98493 18.7214 8.1794 19.6991C8.37387 20.6767 8.85388 21.5748 9.55874 22.2796C10.2636 22.9845 11.1616 23.4645 12.1393 23.659C13.117 23.8534 14.1303 23.7536 15.0513 23.3722C15.9722 22.9907 16.7594 22.3447 17.3132 21.5159C17.867 20.6871 18.1626 19.7126 18.1626 18.7158C18.1626 17.3791 17.6316 16.0972 16.6864 15.152C15.7412 14.2068 14.4592 13.6758 13.1226 13.6758Z" stroke="white" stroke-width="2" stroke-linecap="square" stroke-linejoin="round"/>
</svg>
