<svg width="116" height="64" viewBox="0 0 116 64" fill="none" xmlns="http://www.w3.org/2000/svg">
<path d="M30.8046 14.9658L1.87744 28.9658V35.9658H113.877V0.96582L65.6655 22.9658L30.8046 14.9658Z" fill="url(#paint0_linear_797_1706)"/>
<path d="M0.877441 28.9658L30.3212 14.7202L65.8046 22.5799L114.877 0.96582" stroke="#4C56CC" stroke-linecap="round"/>
<path d="M21.272 52.1953V42.5361H24.0303V52.3491C24.0303 53.5181 24.29 54.3555 24.8096 54.8613C25.3359 55.3604 26.0332 55.6099 26.9014 55.6099C27.7627 55.6099 28.4565 55.3604 28.9829 54.8613C29.5093 54.3555 29.7725 53.5181 29.7725 52.3491V42.5361H32.4897V52.1953C32.4897 54.0957 31.9565 55.4971 30.8901 56.3994C29.8237 57.3018 28.4907 57.7529 26.8911 57.7529C25.2847 57.7529 23.9448 57.3018 22.8716 56.3994C21.8052 55.4971 21.272 54.0957 21.272 52.1953ZM35.207 61.7622V46.8838H37.709L37.7705 48.1553H37.8218C38.0679 47.7314 38.4678 47.3794 39.0215 47.0991C39.5752 46.812 40.2007 46.6685 40.8979 46.6685C42.2515 46.6685 43.3384 47.1572 44.1587 48.1348C44.979 49.1055 45.3892 50.394 45.3892 52.0005V52.3286C45.3892 53.9282 44.9824 55.2202 44.1689 56.2046C43.3555 57.1821 42.2822 57.6709 40.9492 57.6709C40.252 57.6709 39.6367 57.5513 39.1035 57.312C38.5771 57.0728 38.1704 56.748 37.8833 56.3379V61.7622H35.207ZM37.8833 54.0615C38.0542 54.4785 38.3447 54.8477 38.7549 55.1689C39.1719 55.4834 39.6641 55.6406 40.2314 55.6406C41.0586 55.6406 41.6704 55.3501 42.0669 54.769C42.4634 54.1812 42.6616 53.4019 42.6616 52.4312V51.8979C42.6616 50.9272 42.4634 50.1548 42.0669 49.5806C41.6704 48.9995 41.0552 48.709 40.2212 48.709C39.6401 48.709 39.1479 48.8662 38.7446 49.1807C38.3481 49.4883 38.061 49.8472 37.8833 50.2573V54.0615ZM51.9312 53.313V53.0054H54.6895V53.2617C54.6895 54.0547 54.9424 54.6494 55.4482 55.0459C55.9541 55.4424 56.6582 55.6406 57.5605 55.6406C58.4629 55.6406 59.1533 55.4492 59.6318 55.0664C60.1172 54.6836 60.3599 54.1777 60.3599 53.5488C60.3599 52.9336 60.1274 52.4517 59.6626 52.103C59.1978 51.7544 58.2441 51.3784 56.8018 50.9751C55.2363 50.5308 54.0742 49.9702 53.3154 49.2935C52.5635 48.6167 52.1841 47.6768 52.1772 46.4736C52.1772 45.209 52.6523 44.1904 53.6025 43.418C54.5527 42.6387 55.8413 42.249 57.4683 42.249C59.0884 42.249 60.3838 42.6489 61.3545 43.4487C62.332 44.2417 62.8208 45.2944 62.8208 46.6069V46.8838H60.1035V46.6582C60.1035 45.9678 59.8813 45.4175 59.437 45.0073C58.9995 44.5903 58.3467 44.3818 57.4785 44.3818C56.6104 44.3818 55.9712 44.5527 55.561 44.8945C55.1509 45.2363 54.9458 45.7012 54.9458 46.2891C54.9458 46.8496 55.168 47.2837 55.6123 47.5913C56.0566 47.8989 57.0034 48.2544 58.4526 48.6577C59.9907 49.0952 61.1528 49.6694 61.939 50.3804C62.7251 51.0845 63.1182 52.0825 63.1182 53.3745C63.1182 54.728 62.6123 55.7979 61.6006 56.584C60.5957 57.3633 59.2524 57.7529 57.5708 57.7529C55.896 57.7529 54.5356 57.3701 53.4897 56.6045C52.4507 55.8389 51.9312 54.7417 51.9312 53.313ZM65.1279 57.4658V41.8696H67.8042V48.2578C68.1323 47.7861 68.5698 47.4033 69.1167 47.1094C69.6636 46.8154 70.313 46.6685 71.0649 46.6685C72.0698 46.6685 72.8901 46.9795 73.5259 47.6016C74.1685 48.2168 74.4897 49.2319 74.4897 50.647V57.4658H71.8237V50.811C71.8237 50.0728 71.6597 49.5464 71.3315 49.2319C71.0034 48.9175 70.5488 48.7603 69.9678 48.7603C69.4619 48.7603 69.0244 48.9004 68.6553 49.1807C68.2861 49.4609 68.0024 49.8403 67.8042 50.3188V57.4658H65.1279ZM76.4995 52.3286V52.0005C76.4995 50.3667 76.9883 49.0542 77.9658 48.063C78.9502 47.0718 80.2422 46.5762 81.8418 46.5762C83.4414 46.5762 84.73 47.0718 85.7075 48.063C86.6851 49.0542 87.1738 50.3667 87.1738 52.0005V52.3286C87.1738 53.9692 86.6851 55.2852 85.7075 56.2764C84.73 57.2676 83.4414 57.7632 81.8418 57.7632C80.2422 57.7632 78.9502 57.2676 77.9658 56.2764C76.9883 55.2852 76.4995 53.9692 76.4995 52.3286ZM79.2271 51.8979V52.4414C79.2271 53.4463 79.4492 54.2427 79.8936 54.8306C80.3447 55.4185 80.9941 55.7124 81.8418 55.7124C82.6895 55.7124 83.3354 55.4185 83.7798 54.8306C84.2241 54.2427 84.4463 53.4463 84.4463 52.4414V51.8979C84.4463 50.8931 84.2207 50.0967 83.7695 49.5088C83.3184 48.9209 82.6758 48.627 81.8418 48.627C81.001 48.627 80.355 48.9209 79.9038 49.5088C79.4526 50.0967 79.2271 50.8931 79.2271 51.8979ZM87.9326 48.8525V46.8838H94.4028V48.8525H87.9326ZM89.6245 54.4614V47.8477L89.645 47.5708V44.1768H92.2803V54.3281C92.2803 54.8545 92.3726 55.2134 92.5571 55.4048C92.7485 55.5962 93.0254 55.6919 93.3877 55.6919C93.5518 55.6919 93.7158 55.6748 93.8799 55.6406C94.0508 55.5996 94.2148 55.5483 94.3721 55.4868V57.4556C94.208 57.5308 93.9756 57.5991 93.6748 57.6606C93.3809 57.7222 93.0527 57.7529 92.6904 57.7529C91.7539 57.7529 91.0088 57.4897 90.4551 56.9634C89.9014 56.437 89.6245 55.603 89.6245 54.4614Z" fill="white"/>
<defs>
<linearGradient id="paint0_linear_797_1706" x1="57.8774" y1="0.96582" x2="57.7089" y2="35.4668" gradientUnits="userSpaceOnUse">
<stop stop-color="#7782FF"/>
<stop offset="1" stop-color="#7782FF" stop-opacity="0"/>
</linearGradient>
</defs>
</svg>
