<svg width="81" height="81" viewBox="0 0 81 81" fill="none" xmlns="http://www.w3.org/2000/svg">
<g style="mix-blend-mode:multiply">
<path d="M40.2426 80.0343C62.1579 80.0343 79.9237 62.4462 79.9237 40.7501C79.9237 19.054 62.1579 1.46582 40.2426 1.46582C18.3274 1.46582 0.561584 19.054 0.561584 40.7501C0.561584 62.4462 18.3274 80.0343 40.2426 80.0343Z" fill="white"/>
<path d="M40.2426 80.59C18.0553 80.59 0.00012207 62.7154 0.00012207 40.75C0.00012207 18.7846 18.0553 0.909912 40.2426 0.909912C62.4299 0.909912 80.4851 18.7846 80.4851 40.75C80.4851 62.7154 62.4299 80.59 40.2426 80.59ZM40.2426 2.02152C18.6729 2.02152 1.12296 19.396 1.12296 40.75C1.12296 62.104 18.6729 79.4784 40.2426 79.4784C61.8123 79.4784 79.3623 62.104 79.3623 40.75C79.3623 19.396 61.8123 2.02152 40.2426 2.02152Z" fill="#263238"/>
<path d="M45.9019 5.45641C46.1714 5.47864 46.4072 5.48976 46.5981 5.48976L46.5756 5.66761C46.2612 5.71208 45.9917 5.94552 45.7784 6.39016L43.1061 11.6814L43.0275 11.6703L42.9601 11.6592L41.2646 5.75654C41.1523 5.36748 40.9614 5.15627 40.692 5.12293L40.7144 4.94507C40.9614 4.98953 41.2871 5.02288 41.6913 5.06735C42.219 5.11181 42.612 5.14516 42.8703 5.14516L42.8478 5.32302C42.612 5.3119 42.4436 5.32302 42.3425 5.35636C42.2415 5.38971 42.1853 5.47864 42.1741 5.5898C42.1629 5.68985 42.1853 5.83436 42.2415 6.02333L43.4878 10.5365L45.3405 6.84592C45.4977 6.54579 45.5763 6.30123 45.5988 6.12337C45.6212 5.9344 45.5651 5.78989 45.4416 5.68985C45.318 5.5898 45.1159 5.53422 44.8465 5.50087L44.8689 5.32302C45.1945 5.3786 45.5426 5.42306 45.9019 5.45641Z" fill="#263238"/>
<path d="M53.4476 7.80188C53.3353 7.80188 53.2455 7.84635 53.1781 7.93528C53.1108 8.02421 53.0322 8.16872 52.9536 8.37992L51.3479 12.604C51.2693 12.8152 51.2244 12.982 51.2244 13.0931C51.2244 13.2043 51.2581 13.2932 51.3367 13.3599C51.4153 13.4266 51.5613 13.5044 51.7634 13.5934L51.696 13.7601C51.4378 13.6489 51.0784 13.5044 50.6181 13.3266C50.124 13.1376 49.7535 13.0153 49.5065 12.9375L49.5738 12.7708C49.7872 12.8375 49.9444 12.8708 50.0454 12.8708C50.1465 12.8708 50.2475 12.8264 50.3149 12.7374C50.3823 12.6485 50.4609 12.504 50.5395 12.2928L52.1451 8.06867C52.2237 7.85747 52.2686 7.69072 52.2686 7.57956C52.2686 7.4684 52.235 7.37947 52.1564 7.31278C52.0778 7.24608 51.9318 7.16827 51.7297 7.07934L51.7971 6.9126C52.0329 7.01264 52.3922 7.15715 52.8862 7.34613C53.3466 7.52398 53.7171 7.64626 53.9866 7.72407L53.9192 7.89081C53.7171 7.82412 53.5599 7.79077 53.4476 7.80188Z" fill="#263238"/>
<path d="M63.4406 13.6822C63.3284 13.66 63.2161 13.6934 63.115 13.7601C63.014 13.8267 62.8905 13.9601 62.7557 14.1491L59.4995 18.5177L59.3311 18.3955L59.769 11.3701L56.8833 15.2385C56.7485 15.4275 56.6587 15.5831 56.6138 15.7054C56.5689 15.8276 56.5913 15.9388 56.6475 16.05C56.7036 16.1611 56.8384 16.2834 57.0292 16.439L56.917 16.5835C56.7485 16.439 56.5015 16.2501 56.1759 16.0055C55.884 15.7943 55.6482 15.6276 55.4685 15.5275L55.5808 15.383C55.7604 15.5053 55.9064 15.572 56.0187 15.5831C56.131 15.6053 56.2433 15.572 56.3443 15.5053C56.4454 15.4275 56.5689 15.3052 56.7036 15.1162L59.3535 11.5591C59.4883 11.3701 59.5781 11.2256 59.6118 11.1255C59.6455 11.0255 59.6342 10.9254 59.5781 10.8365C59.5219 10.7476 59.4097 10.6364 59.23 10.4919L59.3423 10.3474C59.4883 10.4808 59.7128 10.6587 60.016 10.8699C60.2406 11.0366 60.4314 11.17 60.6111 11.27L60.2518 17.1616L62.5873 14.0268C62.722 13.8379 62.8231 13.6822 62.8568 13.56C62.8905 13.4377 62.8792 13.3265 62.8231 13.2154C62.7669 13.1042 62.6322 12.9708 62.4413 12.8263L62.5536 12.6818C62.722 12.8263 62.9691 13.0153 63.2947 13.2598C63.5866 13.471 63.8224 13.6378 64.0021 13.7378L63.8898 13.8823C63.6989 13.7712 63.5529 13.6934 63.4406 13.6822Z" fill="#263238"/>
<path d="M67.2022 18.6956C67.4941 18.4844 67.7973 18.2509 68.1229 17.9619C68.4036 18.3843 68.8977 19.0846 69.6051 20.074C70.3125 21.0522 70.8177 21.7414 71.1209 22.1416C70.7391 22.3639 70.4135 22.564 70.1216 22.7641C69.8746 22.9419 69.6724 23.0975 69.5265 23.2198L69.403 23.0531C69.7623 22.7418 70.0093 22.4862 70.1553 22.2972C70.3012 22.1082 70.3574 21.9081 70.3461 21.6969C70.3349 21.4857 70.2002 21.23 69.9868 20.9188L69.6949 20.5186L65.4393 23.52C65.2372 23.6645 65.0913 23.7979 65.0239 23.8979C64.9565 23.998 64.9341 24.1202 64.979 24.2536C65.0127 24.3759 65.1137 24.5538 65.2597 24.7761L65.1137 24.8872C64.9453 24.6205 64.687 24.2425 64.3502 23.7867C63.9909 23.2865 63.7214 22.9308 63.5417 22.7085L63.6877 22.5973C63.8561 22.8085 63.9909 22.953 64.1032 23.0309C64.2155 23.1087 64.3277 23.1309 64.4512 23.0975C64.5748 23.0642 64.7432 22.9753 64.9453 22.8308L69.2008 19.8294L68.9089 19.4292C68.6843 19.118 68.4822 18.929 68.2913 18.8401C68.1005 18.7512 67.8871 18.74 67.6626 18.8179C67.438 18.8957 67.1124 19.0402 66.6969 19.2736L66.5734 19.1069C66.7418 19.0179 66.9439 18.8845 67.2022 18.6956Z" fill="#263238"/>
<path d="M69.3578 34.1248L69.1781 34.1804C69.1107 33.9358 69.0209 33.6246 68.8862 33.2466C68.7177 32.7575 68.583 32.3907 68.482 32.1461L68.6616 32.0906C68.7402 32.3018 68.83 32.4574 68.8974 32.5352C68.976 32.613 69.0771 32.6353 69.1893 32.5908C69.2904 32.5574 69.4139 32.4796 69.5599 32.3574L70.8062 31.3458L70.0988 29.2671L69.0546 29.2226C68.7177 29.2004 68.4595 29.2226 68.2798 29.2893C68.1002 29.356 67.9879 29.4561 67.943 29.6006C67.9093 29.7451 67.9318 29.9563 68.0104 30.2119L67.8307 30.2675C67.7409 29.934 67.6286 29.6006 67.5163 29.2671C67.4265 29.0114 67.3479 28.8002 67.2693 28.6335L67.4489 28.5779C67.6061 28.8447 67.943 28.9892 68.437 29.0003L74.4105 29.2671L74.4554 29.4005L69.6946 33.3245C69.4027 33.6024 69.2904 33.858 69.3578 34.1248ZM73.254 29.4005L70.3122 29.2782L70.9746 31.2346L73.254 29.4005Z" fill="#263238"/>
<path d="M70.1776 42.6288C70.2899 42.5843 70.346 42.5288 70.346 42.4509C70.346 42.4065 70.3348 42.3731 70.3123 42.3398C70.2899 42.3064 70.245 42.2397 70.1776 42.1508C70.0092 41.9396 69.8857 41.7173 69.7958 41.495C69.706 41.2726 69.6611 41.017 69.6611 40.7391C69.6499 40.1166 69.7734 39.583 70.0204 39.1272C70.2787 38.6715 70.638 38.3269 71.132 38.0823C71.6148 37.8378 72.1987 37.7155 72.8836 37.7044C73.591 37.6933 74.2086 37.8044 74.7363 38.049C75.2641 38.2935 75.6795 38.627 75.9715 39.0717C76.2634 39.5163 76.4206 40.0165 76.4206 40.5723C76.4206 40.8169 76.3981 41.0392 76.3532 41.2282C76.3083 41.4171 76.2409 41.5839 76.1623 41.7284C76.0837 41.8729 75.9827 42.0396 75.8479 42.2175C75.7918 42.2953 75.7581 42.362 75.7581 42.4065C75.7581 42.5176 75.949 42.5954 76.3195 42.6288V42.84C75.9265 42.8178 75.2191 42.8178 74.2086 42.84V42.6288C74.5342 42.5732 74.8037 42.5065 75.017 42.4398C75.2304 42.3731 75.41 42.2731 75.5672 42.1508C75.7806 41.9729 75.9602 41.7395 76.0837 41.4505C76.2072 41.1615 76.2634 40.8725 76.2634 40.5612C76.2522 40.161 76.1174 39.8164 75.8479 39.5163C75.5785 39.2162 75.1967 38.9938 74.7139 38.8271C74.2198 38.6715 73.6584 38.5937 73.0072 38.6048C72.2661 38.6159 71.671 38.7048 71.1994 38.8716C70.7278 39.0383 70.3909 39.2829 70.1664 39.6052C69.9418 39.9276 69.8408 40.3389 69.852 40.8391C69.8632 41.2059 69.9643 41.5172 70.1551 41.784C70.2337 41.8951 70.3011 41.9618 70.3797 41.9952C70.4471 42.0285 70.5481 42.0396 70.6717 42.0396L71.5587 42.0285C71.8169 42.0285 71.9966 41.9952 72.1201 41.9507C72.2324 41.9063 72.3222 41.8173 72.3559 41.6839C72.4008 41.5617 72.4233 41.3616 72.4233 41.0948H72.6029C72.5917 41.3949 72.5805 41.8173 72.5917 42.3842C72.6029 42.8067 72.6142 43.129 72.6366 43.3291H72.457C72.4457 43.1846 72.4121 43.0846 72.3784 43.029C72.3447 42.9734 72.2661 42.9289 72.165 42.9067C72.064 42.8845 71.8955 42.8734 71.6598 42.8845L69.8408 42.9178V42.74C69.9418 42.6955 70.0653 42.6733 70.1776 42.6288Z" fill="#263238"/>
<path d="M68.8418 52.0884C68.5161 51.9884 68.1344 51.8883 67.6965 51.7994C67.8424 51.4103 68.0558 50.7545 68.3589 49.8207C68.7183 48.7091 68.9765 47.8643 69.1337 47.2974L69.3134 47.3529C69.2572 47.5641 69.2348 47.7198 69.2348 47.8309C69.246 47.9421 69.2909 48.0199 69.3807 48.0866C69.4706 48.1533 69.6278 48.22 69.8411 48.2867L74.1865 49.6429C74.411 49.7096 74.5682 49.7429 74.6805 49.7429C74.7928 49.7429 74.8826 49.6984 74.95 49.6095C75.0174 49.5206 75.0847 49.3761 75.1633 49.176L75.343 49.2316C75.1409 49.7985 74.8714 50.6322 74.5121 51.7438C74.2426 52.5886 74.0517 53.2 73.9619 53.5668C73.5914 53.4112 73.2545 53.2778 72.9401 53.1889C72.7156 53.1222 72.5247 53.0666 72.3899 53.0444L72.4573 52.8443C72.8503 52.9221 73.1535 52.9555 73.3556 52.9555C73.5577 52.9555 73.7261 52.8888 73.8608 52.7554C73.9956 52.6331 74.1079 52.4108 74.2089 52.1106L74.4335 51.3881C74.5009 51.1769 74.5346 51.0213 74.5233 50.9212C74.5121 50.8212 74.4784 50.7322 74.3886 50.6655C74.2988 50.5988 74.1528 50.5321 73.9282 50.4655L71.8622 49.8207L71.6825 50.3988C71.5927 50.6878 71.6152 50.9101 71.7611 51.0657C71.9071 51.2213 72.0643 51.3325 72.244 51.4103C72.4236 51.4881 72.5359 51.5437 72.5808 51.5659L72.5134 51.766C72.2327 51.6549 71.9633 51.5548 71.6938 51.477L71.2783 51.3547C70.9864 51.2658 70.5597 51.1435 70.0207 51.0213L70.0881 50.8212C70.133 50.8323 70.279 50.8545 70.526 50.9101C70.773 50.9546 70.9864 50.9323 71.1548 50.8434C71.3232 50.7545 71.4355 50.5877 71.5141 50.3543L71.6938 49.7763L69.5828 49.1204C69.3583 49.0537 69.2011 49.0204 69.0888 49.0204C68.9765 49.0204 68.8867 49.0648 68.8305 49.1538C68.7632 49.2427 68.6958 49.3872 68.6284 49.5984L68.4263 50.232C68.314 50.5988 68.2691 50.8879 68.314 51.0991C68.3477 51.3214 68.46 51.4992 68.6509 51.6549C68.8418 51.7994 69.1337 51.9661 69.5267 52.144L69.4593 52.3441C69.3246 52.244 69.1112 52.1773 68.8418 52.0884Z" fill="#263238"/>
<path d="M65.6412 65.728C65.6862 65.628 65.6749 65.5279 65.63 65.4279C65.5851 65.3278 65.4728 65.2055 65.3044 65.0388L62.0033 61.9152C61.8348 61.7596 61.7001 61.6595 61.599 61.615C61.498 61.5706 61.3969 61.5706 61.2959 61.615C61.1948 61.6595 61.0713 61.7596 60.9141 61.9152L60.7794 61.7929C60.9927 61.6039 61.2622 61.326 61.6103 60.9814C61.9696 60.6035 62.239 60.3145 62.4075 60.1255L62.5422 60.2478C62.3962 60.4145 62.3064 60.5479 62.2615 60.6368C62.2166 60.7369 62.2278 60.8369 62.2727 60.937C62.3176 61.037 62.4299 61.1593 62.5984 61.326L65.8995 64.4496C66.0679 64.6053 66.2027 64.7053 66.3037 64.7498C66.4048 64.7942 66.5058 64.7942 66.6069 64.7498C66.7079 64.7053 66.8314 64.6053 66.9886 64.4496L67.1234 64.5719C66.9325 64.7387 66.6518 65.0166 66.2925 65.3945C65.9444 65.7502 65.6862 66.0392 65.5065 66.2505L65.3718 66.1282C65.5065 65.9614 65.5963 65.828 65.6412 65.728Z" fill="#263238"/>
<path d="M56.2881 72.5087C56.3555 72.4087 56.3667 72.3086 56.3443 72.1863C56.3218 72.0641 56.2432 71.9084 56.1197 71.6972L53.3351 67.0173L53.5147 66.9062L59.87 70.052L57.411 65.9169C57.2875 65.7168 57.1864 65.5723 57.0854 65.4944C56.9843 65.4166 56.872 65.3833 56.7485 65.3944C56.625 65.4055 56.4566 65.4722 56.2432 65.5834L56.1422 65.4277C56.3443 65.3388 56.6138 65.1832 56.9618 64.9831C57.2762 64.7941 57.512 64.6496 57.6805 64.5273L57.7703 64.683C57.5906 64.7941 57.4671 64.9053 57.411 65.0053C57.3436 65.1054 57.3324 65.2054 57.3548 65.3277C57.3773 65.45 57.4559 65.6056 57.5794 65.8168L59.8475 69.6296C59.9598 69.8297 60.0609 69.9631 60.1507 70.0298C60.2405 70.0965 60.3304 70.1299 60.4426 70.1076C60.5437 70.0854 60.7009 70.0298 60.8918 69.9298L60.9816 70.0854C60.802 70.1743 60.5549 70.3077 60.2293 70.4967C59.9935 70.6301 59.7914 70.7635 59.623 70.8746L54.2895 68.2401L56.2881 71.5972C56.4117 71.7973 56.5127 71.9418 56.6138 72.0196C56.7036 72.0974 56.8159 72.1307 56.9506 72.1196C57.0854 72.1085 57.2538 72.0418 57.4671 71.9307L57.5569 72.0863C57.3548 72.1752 57.0854 72.3308 56.7373 72.5309C56.4229 72.7199 56.1871 72.8644 56.0187 72.9867L55.9288 72.8311C56.0973 72.7088 56.2208 72.5976 56.2881 72.5087Z" fill="#263238"/>
<path d="M50.1127 73.9649C50.1913 74.3095 50.2923 74.6875 50.4271 75.0877C49.9218 75.1766 49.0797 75.3545 47.8895 75.599C46.6993 75.8547 45.8684 76.0436 45.3743 76.1659C45.3182 75.7324 45.262 75.3545 45.1834 75.0099C45.1161 74.7097 45.0599 74.4652 44.9926 74.2873L45.1947 74.2428C45.3406 74.6986 45.4754 75.021 45.5989 75.2322C45.7224 75.4434 45.8796 75.5768 46.0817 75.6435C46.2838 75.7102 46.5758 75.699 46.9463 75.6212L47.4291 75.5212L46.3287 70.4634C46.2726 70.2188 46.2164 70.041 46.1378 69.9409C46.0592 69.8409 45.9694 69.7742 45.8347 69.7631C45.6999 69.7408 45.4978 69.7631 45.2283 69.8075L45.1947 69.6297C45.5091 69.5852 45.9582 69.4963 46.5196 69.374C47.1147 69.2406 47.5639 69.1406 47.8446 69.0627L47.8782 69.2406C47.6088 69.3073 47.4291 69.374 47.3168 69.4407C47.2045 69.5074 47.1372 69.6074 47.1147 69.7297C47.0923 69.852 47.1035 70.041 47.1596 70.2855L48.26 75.3433L48.7428 75.2433C49.1134 75.1655 49.3828 75.0543 49.54 74.9098C49.6972 74.7653 49.7871 74.5763 49.8095 74.3429C49.832 74.1094 49.8208 73.7537 49.7646 73.2869L49.9667 73.2424C50.0004 73.4202 50.0453 73.6648 50.1127 73.9649Z" fill="#263238"/>
<path d="M35.2122 70.8413C35.2459 70.4967 35.2571 70.1076 35.2571 69.6741C35.6726 69.7297 36.3687 69.7963 37.3568 69.8853C38.5246 69.9853 39.4116 70.0631 40.018 70.0965L40.0067 70.2743C39.7822 70.2632 39.625 70.2743 39.5239 70.3077C39.4229 70.341 39.3443 70.3966 39.2993 70.4967C39.2544 70.5967 39.2207 70.7634 39.1983 70.9858L38.7941 75.4878C38.7716 75.7101 38.7828 75.8769 38.8053 75.988C38.8278 76.0992 38.8951 76.177 38.9962 76.2214C39.0972 76.2659 39.2544 76.3104 39.4678 76.3326L39.4565 76.5105C38.8614 76.4438 37.9744 76.3548 36.8066 76.2548C35.9084 76.177 35.2684 76.1325 34.8866 76.1103C34.9652 75.7212 35.0213 75.3655 35.0438 75.0431C35.0662 74.8097 35.0775 74.6207 35.0663 74.4762L35.2796 74.4985C35.2908 74.8986 35.3133 75.1877 35.3694 75.3877C35.4143 75.5878 35.5154 75.7323 35.6726 75.8324C35.8186 75.9324 36.0656 75.9991 36.38 76.0214L37.1435 76.0881C37.3681 76.1103 37.5253 76.0992 37.6263 76.0769C37.7274 76.0547 37.806 75.988 37.8509 75.888C37.8958 75.7879 37.9295 75.6212 37.9519 75.3989L38.1428 73.2646L37.5365 73.209C37.2333 73.1868 37.02 73.2535 36.8965 73.4313C36.7842 73.6092 36.6944 73.787 36.6607 73.976C36.6158 74.165 36.5933 74.2872 36.5821 74.3428L36.3687 74.3206C36.4137 74.0205 36.4473 73.7426 36.481 73.4647L36.5147 73.0311C36.5372 72.7199 36.5596 72.2975 36.5821 71.7417L36.7954 71.7639C36.7954 71.8084 36.8066 71.9529 36.8066 72.2085C36.8179 72.4642 36.874 72.6643 37.0088 72.7977C37.1323 72.9422 37.3232 73.02 37.5702 73.0422L38.1765 73.0978L38.3674 70.9191C38.3898 70.6968 38.3786 70.53 38.3562 70.4188C38.3337 70.3188 38.2663 70.241 38.1653 70.1965C38.0642 70.1521 37.907 70.1187 37.6937 70.0965L37.02 70.0409C36.6382 70.0076 36.3463 70.0298 36.1329 70.1187C35.9308 70.1965 35.7736 70.3522 35.6614 70.5634C35.5491 70.7746 35.4592 71.0969 35.3694 71.5193L35.1561 71.4971C35.1561 71.3304 35.1785 71.108 35.2122 70.8413Z" fill="#263238"/>
<path d="M26.3759 66.7173C26.5443 66.6839 26.7352 66.7173 26.9373 66.8062C27.1731 66.9062 27.3303 67.0508 27.4201 67.2397C27.5099 67.4398 27.5212 67.7177 27.465 68.0846L27.2966 68.9961C27.2405 69.3184 27.2068 69.563 27.1955 69.752C27.1843 69.9298 27.2292 70.0966 27.3078 70.2411C27.3864 70.3856 27.5324 70.4967 27.7457 70.5857L28.5542 70.9192L29.3739 68.985C29.4637 68.7738 29.5086 68.6181 29.5198 68.507C29.5311 68.3958 29.4861 68.3069 29.4075 68.2291C29.3289 68.1513 29.1942 68.0734 28.9921 67.9845L29.0595 67.8178C29.3177 67.94 29.6658 68.0957 30.1262 68.2846C30.609 68.4847 30.9795 68.6292 31.2265 68.7071L31.1592 68.8738C30.9458 68.796 30.7886 68.7626 30.6876 68.7515C30.5753 68.7515 30.4855 68.7849 30.4181 68.8738C30.3395 68.9516 30.2609 69.0961 30.1711 69.3073L28.4082 73.4759C28.3184 73.6871 28.2735 73.8427 28.2622 73.9538C28.251 74.065 28.2959 74.1539 28.3745 74.2318C28.4531 74.3096 28.5879 74.3874 28.79 74.4874L28.7226 74.6542C28.4868 74.543 28.15 74.3874 27.7008 74.1984C27.4763 74.1095 27.2405 74.0094 26.971 73.8983C26.7015 73.7871 26.5218 73.7204 26.4208 73.6759C25.9829 73.487 25.6348 73.2758 25.3766 73.0201C25.1183 72.7644 24.9723 72.4976 24.905 72.2086C24.8376 71.9196 24.8713 71.6417 24.9948 71.3638C25.0846 71.1415 25.2306 70.9414 25.4327 70.7635C25.6348 70.5857 25.8931 70.4523 26.2075 70.3856C26.5218 70.3189 26.9036 70.33 27.3191 70.43L27.218 70.3745C26.9822 70.23 26.8026 70.0854 26.6903 69.9298C26.578 69.7853 26.4994 69.6186 26.4769 69.4407C26.4432 69.2629 26.4545 69.0405 26.4994 68.7738L26.6566 67.8289C26.6903 67.6399 26.7127 67.4954 26.7127 67.3842C26.7127 67.2731 26.7015 67.1842 26.6678 67.1175C26.6341 67.0508 26.578 66.9952 26.4994 66.9729C26.4096 66.9285 26.3197 66.9285 26.2411 66.9507C26.1625 66.9729 26.0503 67.0285 25.9043 67.1063L25.8145 66.9618C26.0166 66.8395 26.2075 66.7506 26.3759 66.7173ZM26.9373 70.6746C26.6678 70.7079 26.4545 70.808 26.2861 70.9747C26.1176 71.1415 25.9717 71.3638 25.8481 71.6528C25.6573 72.1086 25.6123 72.5088 25.7359 72.8311C25.8594 73.1535 26.1625 73.4203 26.6678 73.6315C26.8475 73.7093 26.9822 73.7426 27.0945 73.7315C27.1955 73.7315 27.2854 73.6871 27.364 73.5981C27.4426 73.5092 27.5212 73.3647 27.5998 73.1646L28.4756 71.097L27.9029 70.8636C27.5324 70.708 27.2068 70.6413 26.9373 70.6746Z" fill="#263238"/>
<path d="M17.6175 68.229C17.7185 68.2624 17.8196 68.2402 17.9094 68.1846C17.9992 68.129 18.1227 68.0067 18.2687 67.8289L21.087 64.2717C21.233 64.0939 21.3228 63.9493 21.3565 63.8493C21.3902 63.7493 21.379 63.6492 21.3228 63.5603C21.2667 63.4714 21.1544 63.3491 20.986 63.2046L21.0983 63.0601C21.3116 63.249 21.6035 63.4936 21.9965 63.7937C22.412 64.1161 22.7264 64.3495 22.9397 64.494L22.8274 64.6385C22.6478 64.5052 22.5018 64.4273 22.4007 64.4051C22.2997 64.3718 22.1986 64.3829 22.1088 64.4496C22.019 64.5052 21.8955 64.6274 21.7495 64.8053L18.9312 68.3624C18.7852 68.5403 18.6954 68.6848 18.6617 68.7848C18.628 68.8849 18.6392 68.9849 18.6954 69.0739C18.7515 69.1628 18.8638 69.2851 19.0322 69.4296L18.9199 69.5741C18.7291 69.4073 18.4259 69.1628 18.0104 68.8293C17.6175 68.5292 17.3031 68.2957 17.0785 68.1401L17.1908 67.9956C17.3817 68.1179 17.5164 68.1957 17.6175 68.229Z" fill="#263238"/>
<path d="M10.3642 60.3144C10.3193 59.8142 10.4316 59.314 10.6898 58.836C10.9593 58.3469 11.3635 57.9134 11.925 57.5021C12.4751 57.113 13.0253 56.8573 13.598 56.7573C14.1706 56.6573 14.6984 56.6906 15.1924 56.8796C15.6865 57.0686 16.1019 57.3909 16.4275 57.8467C16.7756 58.3136 16.9665 58.8027 17.0114 59.3029C17.0563 59.8031 16.944 60.3033 16.6858 60.7813C16.4163 61.2704 16.0121 61.704 15.4507 62.1153C14.9005 62.5043 14.3503 62.76 13.7776 62.86C13.2162 62.9601 12.6773 62.9267 12.1832 62.7378C11.6892 62.5488 11.2737 62.2264 10.9481 61.7818C10.6 61.3038 10.4091 60.8147 10.3642 60.3144ZM12.0485 62.2931C12.4415 62.3709 12.8906 62.3376 13.3846 62.182C13.8787 62.0263 14.3727 61.7707 14.8892 61.3927C15.4058 61.0259 15.81 60.6257 16.0907 60.2033C16.3826 59.7809 16.5398 59.3585 16.5623 58.9583C16.596 58.5581 16.4949 58.2024 16.2816 57.9023C16.0458 57.591 15.7426 57.3909 15.3384 57.3131C14.9454 57.2353 14.4963 57.2686 14.0022 57.4243C13.5082 57.5799 13.0141 57.8356 12.4976 58.2024C11.9811 58.5692 11.5769 58.9694 11.2962 59.4029C11.0042 59.8253 10.847 60.2366 10.8133 60.6479C10.7797 61.0481 10.8807 61.4038 11.0941 61.704C11.3299 62.0152 11.6442 62.2153 12.0485 62.2931Z" fill="#263238"/>
<path d="M11.2286 46.9306C11.3634 47.0307 11.4644 47.1974 11.5318 47.4197C11.6104 47.6532 11.5992 47.8755 11.5093 48.0644C11.4195 48.2645 11.2062 48.4535 10.8806 48.6425L10.0609 49.0982C9.78018 49.265 9.56684 49.3984 9.42087 49.5095C9.2749 49.6207 9.17385 49.7541 9.1177 49.9097C9.06156 50.0653 9.06156 50.2432 9.12893 50.4655L9.38718 51.2992L11.4083 50.6767C11.6329 50.61 11.7788 50.5433 11.8687 50.4766C11.9585 50.4099 12.0034 50.321 12.0146 50.221C12.0259 50.1209 11.9922 49.9542 11.936 49.743L12.1157 49.6874C12.183 49.9542 12.2841 50.3321 12.4413 50.799C12.5985 51.2992 12.722 51.6661 12.8118 51.8995L12.6322 51.9551C12.5536 51.7439 12.4862 51.5994 12.4188 51.5215C12.3515 51.4437 12.2616 51.3882 12.1494 51.3882C12.0371 51.3882 11.8687 51.4104 11.6553 51.4882L7.29871 52.8221C7.07414 52.8888 6.92817 52.9555 6.83834 53.0222C6.74852 53.0889 6.7036 53.1778 6.69238 53.2779C6.68115 53.3891 6.71483 53.5447 6.77097 53.7559L6.59132 53.8115C6.53518 53.5669 6.43412 53.2112 6.28815 52.7443C6.22078 52.522 6.13096 52.2663 6.04113 51.9995C5.9513 51.7328 5.88393 51.5438 5.85025 51.4437C5.70428 50.988 5.65936 50.5878 5.69305 50.2321C5.72674 49.8764 5.83902 49.5874 6.01867 49.3539C6.19833 49.1205 6.43412 48.9649 6.72606 48.8759C6.95063 48.8092 7.19765 48.787 7.46713 48.8203C7.73661 48.8537 7.99487 48.9648 8.26435 49.1649C8.53383 49.365 8.7584 49.654 8.94928 50.0431L8.93805 49.9319C8.90436 49.654 8.89314 49.4317 8.93805 49.2428C8.98296 49.0538 9.06156 48.8982 9.17385 48.7648C9.29736 48.6314 9.47701 48.4869 9.71281 48.3535L10.5437 47.8644C10.7121 47.7754 10.8469 47.6865 10.9255 47.6198C11.0041 47.5531 11.0714 47.4864 11.1051 47.4197C11.1388 47.353 11.1388 47.2752 11.1164 47.1974C11.0827 47.0973 11.0378 47.0307 10.9704 46.9862C10.903 46.9417 10.7907 46.8861 10.6335 46.8306L10.6897 46.6638C10.9142 46.7416 11.1051 46.8306 11.2286 46.9306ZM8.54506 49.9097C8.35417 49.7319 8.12961 49.6318 7.89381 49.6096C7.65802 49.5874 7.38853 49.6207 7.08537 49.7207C6.60255 49.8653 6.27693 50.0987 6.09727 50.3988C5.91762 50.699 5.91762 51.1103 6.07481 51.6105C6.13096 51.7883 6.19833 51.9217 6.2657 51.9995C6.33307 52.0774 6.43412 52.1218 6.54641 52.1218C6.65869 52.1218 6.82712 52.0885 7.02923 52.0329L9.18507 51.3659L9.00542 50.7768C8.89314 50.3766 8.73594 50.0876 8.54506 49.9097Z" fill="#263238"/>
<path d="M10.3641 36.3815C10.7908 36.1925 11.049 35.8368 11.1613 35.3032C11.195 35.1031 11.195 34.903 11.1388 34.7141C11.0827 34.5251 10.9816 34.3584 10.8244 34.2138C10.6672 34.0693 10.4539 33.9693 10.1732 33.9248C9.9374 33.8804 9.72406 33.9026 9.52195 33.9804C9.31984 34.0582 9.11773 34.1805 8.92685 34.3472C8.73597 34.514 8.5114 34.7363 8.26438 35.0142C7.98367 35.3255 7.73664 35.5811 7.5233 35.759C7.30996 35.948 7.07417 36.0813 6.81592 36.1814C6.55766 36.2814 6.26573 36.2926 5.9401 36.237C5.60325 36.1703 5.32254 36.048 5.12043 35.8479C4.91832 35.6478 4.77235 35.4144 4.70498 35.1365C4.63761 34.8586 4.63761 34.5696 4.69375 34.2583C4.72744 34.0693 4.77235 33.9248 4.82849 33.7914C4.88464 33.658 4.94078 33.558 5.00815 33.4802C5.07552 33.4024 5.14289 33.3134 5.23271 33.2245C5.345 33.1022 5.40114 33.0133 5.4236 32.9466C5.43483 32.891 5.41237 32.8466 5.35623 32.8021C5.30008 32.7576 5.19903 32.7243 5.06429 32.6798L5.09797 32.4797C5.44605 32.5687 6.05239 32.7021 6.93943 32.8688L6.90574 33.0689C6.59135 33.0355 6.29941 33.0467 6.00747 33.1134C5.72676 33.1689 5.47974 33.2912 5.27763 33.4802C5.07552 33.658 4.94078 33.9137 4.88464 34.225C4.83972 34.4362 4.85095 34.6251 4.90709 34.8141C4.96323 35.0031 5.06429 35.1476 5.19903 35.2699C5.345 35.3922 5.51342 35.47 5.71553 35.5144C6.04116 35.57 6.32187 35.5255 6.55766 35.3699C6.79346 35.2143 7.01803 35.0142 7.23137 34.7808C7.4447 34.5473 7.57944 34.3917 7.65804 34.3139C7.97244 33.9804 8.23069 33.7247 8.44403 33.5358C8.65737 33.3468 8.89316 33.2134 9.15142 33.1245C9.40967 33.0355 9.69038 33.0244 9.99354 33.08C10.3641 33.1467 10.6672 33.2912 10.8918 33.5024C11.1164 33.7247 11.2624 33.9804 11.341 34.2917C11.4195 34.6029 11.4195 34.9364 11.3522 35.2921C11.296 35.5811 11.2287 35.8034 11.1276 35.9813C11.0378 36.1592 10.9143 36.3148 10.7795 36.4593C10.6672 36.5816 10.6111 36.6705 10.5886 36.7372C10.5774 36.7928 10.5999 36.8372 10.656 36.8817C10.7122 36.9262 10.8132 36.9706 10.948 37.004L10.9143 37.2041C10.5886 37.1151 9.87003 36.9706 8.75842 36.7705L8.79211 36.5705C9.4209 36.626 9.9374 36.5705 10.3641 36.3815Z" fill="#263238"/>
<path d="M8.14091 27.0106C7.82652 26.8438 7.46721 26.6882 7.06299 26.5326C7.31001 26.099 7.72546 25.3431 8.28688 24.2649C8.8483 23.1977 9.24129 22.4418 9.45463 21.9861C9.82517 22.2195 10.162 22.4196 10.4652 22.5752C10.7347 22.7197 10.9705 22.8198 11.1501 22.8976L11.0491 23.0866C10.5999 22.9087 10.2631 22.7976 10.0273 22.7642C9.79148 22.7197 9.57814 22.7642 9.39849 22.8754C9.21884 22.9865 9.03918 23.2089 8.87076 23.5423L8.64619 23.987L13.2835 26.3769C13.5081 26.4992 13.6877 26.5548 13.8112 26.5659C13.9348 26.577 14.047 26.5437 14.1481 26.4548C14.2491 26.3658 14.3614 26.1991 14.4962 25.9656L14.6646 26.0546C14.4962 26.3325 14.2828 26.7215 14.0134 27.2329C13.7326 27.7665 13.5305 28.1777 13.407 28.4334L13.2386 28.3445C13.3509 28.0999 13.4295 27.911 13.4407 27.7887C13.4632 27.6553 13.4295 27.5441 13.3396 27.4441C13.2498 27.344 13.1039 27.244 12.8793 27.1217L8.24197 24.7206L8.00617 25.1542C7.82652 25.4877 7.74792 25.7544 7.75915 25.9656C7.77038 26.1769 7.8602 26.3658 8.02863 26.5326C8.19705 26.6993 8.47776 26.9216 8.88198 27.1773L8.78093 27.3663C8.63496 27.2773 8.41039 27.1551 8.14091 27.0106Z" fill="#263238"/>
<path d="M16.0679 14.2383C16.2588 14.0493 16.416 13.8714 16.5283 13.738L16.663 13.8714C16.5957 13.9715 16.562 14.116 16.5732 14.2827C16.5844 14.4495 16.6293 14.6829 16.7192 14.9608L17.7409 17.9733L18.9312 19.1405C19.0996 19.2961 19.2231 19.4072 19.3241 19.4517C19.4252 19.4962 19.5263 19.4962 19.6273 19.4517C19.7284 19.4072 19.8519 19.3072 20.0203 19.1627L20.155 19.2961C19.9417 19.4851 19.661 19.7518 19.3129 20.0964C18.9424 20.4633 18.6729 20.7523 18.5045 20.9413L18.3697 20.8079C18.5157 20.6411 18.6168 20.5189 18.6617 20.4188C18.7066 20.3188 18.7066 20.2187 18.6504 20.1187C18.6055 20.0186 18.4932 19.8852 18.336 19.7296L17.348 18.7625L13.5977 17.6731C13.3731 17.6064 13.2047 17.5842 13.0924 17.5953C12.9801 17.6064 12.9015 17.6398 12.8454 17.6954L12.7106 17.562C12.8903 17.4063 13.0924 17.2285 13.2945 17.0173C13.71 16.5949 14.0131 16.2947 14.1815 16.0946L14.3163 16.228C14.0131 16.5282 13.9458 16.7616 14.1142 16.9284C14.1815 16.9951 14.2714 17.0395 14.4061 17.084L17.5613 18.0511L16.7304 15.5944C16.6069 15.2387 16.4834 14.9942 16.3486 14.8719C16.2251 14.7496 16.0904 14.7163 15.9444 14.7607C15.7984 14.8052 15.63 14.9163 15.4279 15.1053L15.2932 14.9719C15.5626 14.7274 15.8097 14.4828 16.0679 14.2383Z" fill="#263238"/>
<path d="M22.8614 9.75836C22.7941 9.83618 22.7604 9.93622 22.7828 10.0474C22.8053 10.1585 22.8614 10.3142 22.9737 10.5143L25.1408 14.4938C25.2531 14.6939 25.3429 14.8273 25.4327 14.9051C25.5113 14.9829 25.6124 15.0052 25.7134 14.994C25.8145 14.9829 25.9717 14.9162 26.1626 14.8162L26.7577 14.4938C27.0945 14.316 27.3303 14.127 27.4538 13.938C27.5773 13.749 27.6223 13.5378 27.5886 13.2822C27.5549 13.0265 27.4538 12.7041 27.2742 12.2817L27.4651 12.1817C27.5437 12.3595 27.6559 12.5819 27.8019 12.8486C27.9703 13.1488 28.1725 13.4823 28.4195 13.8491C28.0489 14.0269 27.4201 14.3493 26.5556 14.8162C25.5226 15.372 24.7366 15.7944 24.2201 16.0945L24.1302 15.9389C24.3211 15.8277 24.4559 15.7277 24.5232 15.6499C24.5906 15.5721 24.6243 15.472 24.6018 15.3609C24.5794 15.2497 24.5232 15.0941 24.4109 14.894L22.2214 10.9144C22.1091 10.7143 22.0193 10.581 21.9295 10.5031C21.8509 10.4253 21.7498 10.4031 21.6488 10.4142C21.5365 10.4253 21.3905 10.4809 21.1884 10.581L21.1098 10.4142C21.3456 10.3142 21.6937 10.1363 22.154 9.88064C22.5919 9.6472 22.9288 9.45823 23.1646 9.31372L23.2544 9.46935C23.0635 9.58051 22.94 9.68055 22.8614 9.75836Z" fill="#263238"/>
<path d="M36.5376 10.4697C36.605 10.8032 36.7061 11.1812 36.8296 11.6036C36.4141 11.6703 35.7292 11.7926 34.7636 11.9815C33.607 12.2039 32.7425 12.3817 32.1473 12.5151L32.1137 12.3373C32.327 12.2817 32.4842 12.2372 32.574 12.1705C32.6639 12.1149 32.72 12.026 32.7312 11.926C32.7425 11.8148 32.7312 11.6481 32.6863 11.4257L31.8105 6.99041C31.7656 6.76809 31.7207 6.61246 31.6533 6.51242C31.5859 6.41237 31.5186 6.35679 31.4063 6.34568C31.3052 6.32345 31.1368 6.33456 30.9235 6.36791L30.8898 6.19005C31.4849 6.09001 32.3607 5.93438 33.506 5.71206C34.393 5.5342 35.0218 5.41193 35.3811 5.323C35.4148 5.72318 35.4709 6.07889 35.5271 6.39014C35.572 6.62358 35.6169 6.80144 35.6618 6.93483L35.4597 6.9793C35.3362 6.60135 35.2239 6.32345 35.1229 6.14559C35.0218 5.96773 34.8758 5.85657 34.7074 5.80099C34.5278 5.74541 34.292 5.74541 33.9663 5.81211L33.214 5.95662C33.0007 6.00108 32.8435 6.04554 32.7537 6.10112C32.6639 6.1567 32.6077 6.23452 32.5853 6.34568C32.574 6.45684 32.5853 6.62358 32.6302 6.8459L33.0456 8.95796L33.6407 8.83568C33.9439 8.7801 34.1235 8.64671 34.1909 8.44662C34.2583 8.24653 34.2807 8.05756 34.2695 7.86858C34.2583 7.67961 34.2471 7.55733 34.2471 7.50175L34.4492 7.45729C34.4829 7.75742 34.5278 8.03532 34.5839 8.30211L34.6737 8.72452C34.7299 9.02466 34.8309 9.44707 34.9769 9.98064L34.7748 10.0251C34.7636 9.98064 34.7186 9.84725 34.64 9.60269C34.5614 9.35814 34.4492 9.1914 34.2807 9.09135C34.1123 8.99131 33.9214 8.96908 33.6744 9.01354L33.0793 9.1247L33.506 11.2701C33.5509 11.4924 33.5958 11.6481 33.6519 11.7481C33.7081 11.837 33.7867 11.8926 33.899 11.9148C34 11.926 34.1685 11.9148 34.3818 11.8704L35.0443 11.737C35.4148 11.6592 35.6955 11.5591 35.8752 11.4257C36.0548 11.2923 36.1559 11.1034 36.2008 10.8699C36.2457 10.6365 36.2457 10.303 36.212 9.86948L36.4141 9.82501C36.4478 9.99176 36.4815 10.203 36.5376 10.4697Z" fill="#263238"/>
<path d="M28.9696 52.9222C28.4531 52.233 28.0039 51.4771 27.6109 50.6434C27.218 49.8097 26.9036 48.9649 26.6678 48.0978C26.1513 44.285 26.14 40.5833 26.6228 36.9928C27.1057 33.4023 27.8917 29.8674 28.9696 26.377C29.1492 25.9879 29.5422 25.7989 30.1486 25.7989C30.7549 25.7989 31.35 25.9323 31.9563 26.1991C32.5627 26.4659 33.0567 26.8216 33.4497 27.2663C33.8427 27.7109 33.9325 28.1778 33.7192 28.6558C33.3823 29.3672 33.0567 30.3343 32.7311 31.5348C32.4055 32.7465 32.0798 34.0804 31.7879 35.5366C31.4847 36.9928 31.2265 38.5269 31.0019 40.1165C30.7773 41.7061 30.6089 43.2401 30.5079 44.6963C30.4068 46.1525 30.3844 47.4753 30.4405 48.6536C30.4966 49.8319 30.6763 50.7657 30.9795 51.4438C32.3942 49.5651 33.6855 47.6198 34.8645 45.6078C36.0435 43.5958 37.1438 41.5616 38.1768 39.4828C39.2099 37.4152 40.198 35.3254 41.1299 33.2022C42.0619 31.0902 42.9826 29.0004 43.8809 26.9439C44.33 25.899 44.7791 24.7985 45.217 23.6424C45.6549 22.4752 46.2276 21.4859 46.9574 20.6522C47.2606 20.3854 47.4964 20.2965 47.6536 20.3854C47.822 20.4743 47.9343 20.6411 47.9904 20.8967C48.0466 21.1524 48.0803 21.4192 48.0803 21.6971C48.0803 21.975 48.0803 22.1973 48.0803 22.3418C47.8669 23.7091 47.6873 25.0653 47.5413 26.4103C47.3953 27.7554 47.0697 29.0448 46.5981 30.301C45.8121 32.2685 45.0149 34.2138 44.184 36.1591C43.3531 38.0933 42.4661 40.0053 41.5229 41.8839C40.5797 43.7625 39.5467 45.5856 38.4576 47.353C37.3572 49.1316 36.167 50.8213 34.8645 52.422C33.8427 53.7003 32.8209 54.3784 31.8216 54.4562C30.7773 54.5451 29.8454 54.0227 28.9696 52.9222Z" fill="#FF5196" stroke="white" stroke-miterlimit="10"/>
<path d="M47.5639 47.8756C46.9576 47.0419 46.3625 46.1971 45.7786 45.33C45.1947 44.463 44.9028 43.5181 44.9028 42.4732C44.9028 41.3171 45.2396 40.2166 45.9133 39.1828C46.587 38.1602 47.3618 37.3265 48.2376 36.704C48.5969 36.4705 48.9675 36.2704 49.338 36.1259C49.7085 35.9814 50.1128 35.9925 50.5394 36.1704C50.7191 36.2593 50.91 36.326 51.1008 36.3705C51.2917 36.4149 51.4714 36.4705 51.6174 36.5261C51.7633 36.5817 51.9317 36.6706 52.1114 36.7929C52.2911 36.9152 52.3809 37.0708 52.3809 37.282C52.3809 38.1157 52.4033 38.7938 52.4483 39.3162C52.4932 39.8387 52.5605 40.2833 52.6504 40.6613C52.7402 41.0392 52.83 41.3616 52.9198 41.6395C53.0097 41.9285 53.0995 42.2287 53.1893 42.551C53.2455 42.8512 53.2342 43.1068 53.1444 43.3069C53.0546 43.5181 52.83 43.5404 52.4707 43.3958C51.8082 43.1624 51.3142 42.6844 50.9998 41.9619C50.6854 41.2393 50.4496 40.5946 50.3036 39.9943C50.2699 39.872 50.2026 39.672 50.0791 39.3718C49.9556 39.0717 49.8882 38.8605 49.8545 38.7493C49.6187 38.6937 49.3268 38.7715 49.0011 38.9939C48.6755 39.2162 48.3724 39.5274 48.1253 39.9054C47.8671 40.2945 47.6986 40.7391 47.6313 41.2504C47.5527 41.7618 47.6537 42.262 47.9232 42.7733C48.0467 42.9512 48.2152 43.1735 48.4397 43.4181C48.6643 43.6737 48.8889 43.9294 49.1134 44.1962C49.338 44.463 49.5626 44.7298 49.7871 44.9743C50.0117 45.2189 50.2026 45.4301 50.3485 45.5746C50.5282 45.7525 50.6517 45.8525 50.7079 45.8636C50.764 45.8747 50.9212 45.8414 51.157 45.7525C51.4602 45.6079 51.9205 45.4079 52.5381 45.1744C53.1556 44.941 53.8069 44.6964 54.4806 44.463C55.1543 44.2296 55.8055 44.0295 56.4231 43.8627C57.0407 43.696 57.5123 43.6182 57.8491 43.6182C58.0624 43.6182 58.2084 43.696 58.2982 43.8405C58.3881 43.9294 58.3768 44.0517 58.2533 44.1962C58.1298 44.3407 57.9726 44.4963 57.7817 44.6408C57.5908 44.7854 57.3775 44.9187 57.1754 45.041C56.9621 45.1633 56.8273 45.23 56.7712 45.2633C56.2547 45.5635 55.6147 45.897 54.8287 46.2749C54.0427 46.6417 53.369 47.0086 52.7963 47.3643C52.7402 47.4199 52.6279 47.4866 52.4595 47.5421C52.2911 47.5977 52.1675 47.6644 52.0777 47.72C52.437 48.5204 52.6953 49.2207 52.8412 49.7987C52.9872 50.3767 53.0434 50.9326 52.9984 51.4772C52.9535 52.0108 52.8412 52.5555 52.6616 53.1113C52.4819 53.6671 52.2349 54.3007 51.943 55.0122C51.5163 55.7014 51.0896 56.3572 50.6517 56.9797C50.2138 57.6022 49.731 58.1691 49.1808 58.6805C48.6418 59.1918 48.0467 59.592 47.4179 59.881C46.7892 60.1811 46.093 60.3257 45.3407 60.3257C44.914 60.3257 44.5098 60.2701 44.1168 60.17C43.7238 60.07 43.3982 59.8477 43.1287 59.5253C42.4325 58.7805 42.0508 57.969 41.961 57.0909C41.8711 56.2127 41.9497 55.3456 42.1855 54.4786C42.3652 53.945 42.5897 53.4559 42.8592 53.0001C43.5217 51.8663 44.2515 50.9103 45.0488 50.1211C45.8572 49.343 46.6881 48.5871 47.5639 47.8756ZM49.1022 49.8876C48.7653 50.2211 48.3162 50.688 47.7436 51.2994C47.1709 51.9108 46.6432 52.5777 46.1379 53.2892C45.6439 54.0006 45.2396 54.712 44.9252 55.4123C44.6108 56.1126 44.5323 56.7129 44.6782 57.2243C45.2846 56.9575 45.9021 56.5128 46.5309 55.9014C47.1597 55.2901 47.7211 54.6231 48.2039 53.8894C48.6867 53.1558 49.0236 52.4332 49.2145 51.7218C49.4054 50.9992 49.3717 50.3879 49.1022 49.8876Z" fill="#FF5196" stroke="white" stroke-miterlimit="10"/>
<path d="M40.2426 65.9724C26.1959 65.9724 14.7654 54.6562 14.7654 40.75C14.7654 26.8438 26.1959 15.5276 40.2426 15.5276C54.2893 15.5276 65.7198 26.8438 65.7198 40.75C65.7198 54.6562 54.2893 65.9724 40.2426 65.9724ZM40.2426 16.6392C26.8135 16.6392 15.8883 27.4552 15.8883 40.75C15.8883 54.0448 26.8135 64.8608 40.2426 64.8608C53.6718 64.8608 64.597 54.0448 64.597 40.75C64.597 27.4552 53.6718 16.6392 40.2426 16.6392Z" fill="#263238"/>
</g>
</svg>
